<?xml version="1.0" encoding="UTF-8"?>
<svg version="1.1" xmlns="http://www.w3.org/2000/svg" width="513" height="486">
<path d="M0 0 C1.35057653 -0.0037407 2.7011509 -0.00834389 4.05172187 -0.01373065 C7.74829035 -0.02592444 11.44476807 -0.02570447 15.14135206 -0.02334189 C19.13401318 -0.0229328 23.12664557 -0.0339817 27.11929321 -0.04345703 C34.93650654 -0.06004849 42.75368971 -0.06556575 50.57091918 -0.06668179 C56.92788696 -0.06763321 63.28484482 -0.07174822 69.64180946 -0.07808304 C87.67940501 -0.09569096 105.71697679 -0.1049227 123.754581 -0.10342209 C124.72637692 -0.10334218 125.69817283 -0.10326227 126.69941711 -0.10317993 C128.15889851 -0.10305729 128.15889851 -0.10305729 129.64786438 -0.10293217 C145.41047255 -0.10211956 161.17298509 -0.12125204 176.93556561 -0.14945666 C193.13461623 -0.17821268 209.33362025 -0.19199544 225.53269702 -0.19026911 C234.62152668 -0.18960611 243.71025611 -0.19505872 252.79906273 -0.21662521 C260.53861071 -0.23487288 268.27801303 -0.23915504 276.01757326 -0.22560637 C279.96253544 -0.21909454 283.90721848 -0.21889437 287.85215378 -0.23631287 C291.47149528 -0.25212861 295.09033829 -0.2490945 298.70966826 -0.2317446 C300.62237801 -0.22726013 302.53510375 -0.24226514 304.44775218 -0.25822389 C315.41127759 -0.17155634 325.42906721 2.24792898 334.67329407 8.26742554 C334.67329407 8.92742554 334.67329407 9.58742554 334.67329407 10.26742554 C336.65329407 10.76242554 336.65329407 10.76242554 338.67329407 11.26742554 C338.67329407 11.92742554 338.67329407 12.58742554 338.67329407 13.26742554 C339.66329407 13.59742554 340.65329407 13.92742554 341.67329407 14.26742554 C344.67329407 17.71186998 344.67329407 17.71186998 344.67329407 20.26742554 C345.33329407 20.26742554 345.99329407 20.26742554 346.67329407 20.26742554 C347.6393773 22.11756607 348.59578476 23.97276027 349.54829407 25.82992554 C350.08196594 26.8624646 350.61563782 27.89500366 351.16548157 28.95883179 C354.74541558 36.81428285 354.96265749 43.53926663 354.9407196 52.10096741 C354.94525072 53.39705124 354.94978183 54.69313508 354.95445025 56.02849418 C354.96665559 59.61523762 354.9664227 63.2018876 354.9640615 66.78864706 C354.9636527 70.66133324 354.97469856 74.53398971 354.98417664 78.40666199 C355.0007746 85.99039501 355.00628566 93.57409693 355.00740139 101.15784659 C355.00835254 107.3246296 355.01246616 113.49140237 355.01880264 119.65818214 C355.0364126 137.15337638 355.04564202 154.6485461 355.04414169 172.14374926 C355.04406178 173.08650335 355.04398187 174.02925744 355.04389954 175.00057983 C355.04381777 175.9444891 355.04373601 176.88839836 355.04365177 177.86091093 C355.04283918 193.15220308 355.06197077 208.44339665 355.09017627 223.73466029 C355.11892839 239.44663928 355.13271525 255.15857024 355.13098872 270.8705762 C355.13032557 279.68719923 355.13578475 288.50371894 355.15734482 297.32031822 C355.17558738 304.82825632 355.17987885 312.33604429 355.16632597 319.843995 C355.15981147 323.671364 355.15962366 327.49844525 355.17703247 331.32578659 C355.19574969 335.48372888 355.18316905 339.64100958 355.16777039 343.79896545 C355.17805751 344.99655808 355.18834464 346.1941507 355.1989435 347.42803401 C355.08364494 361.55951027 349.97773304 373.51167343 340.54829407 384.01742554 C329.72628737 394.17835943 317.47997474 396.5695955 303.30152893 396.53485107 C301.9338909 396.53859046 300.566255 396.54319314 299.19862247 396.54858172 C295.45032751 396.56079153 291.70212194 396.56055364 287.95381165 396.55819297 C283.90731945 396.55778429 279.86085571 396.56882885 275.81437683 396.57830811 C267.89008046 396.59490813 259.96581385 396.60041721 252.04150155 396.60153286 C245.59868035 396.60248383 239.15586895 396.60659659 232.71305084 396.61293411 C214.43806577 396.63054401 196.16310417 396.63977341 177.88811055 396.63827316 C176.9032758 396.63819325 175.91844105 396.63811334 174.90376282 396.63803101 C173.91772264 396.63794924 172.93168246 396.63786748 171.91576228 396.63778324 C155.93834459 396.63697047 139.96102121 396.65610652 123.98363081 396.68430774 C107.56991924 396.71305 91.15625365 396.72684729 74.74251628 396.72512019 C65.53077508 396.72445674 56.31913274 396.72992929 47.10741425 396.75147629 C39.26384767 396.76970576 31.42042476 396.77402095 23.57684615 396.76045744 C19.57745792 396.75393661 15.57834517 396.75377833 11.57898331 396.77116394 C7.9122142 396.78693933 4.24593798 396.78398612 0.57918057 396.76659568 C-1.36388516 396.76209441 -3.30696644 396.77714805 -5.24997211 396.79307497 C-15.21695503 396.71499437 -23.49372069 394.38369021 -32.01420593 389.14242554 C-32.84307312 388.64484741 -33.67194031 388.14726929 -34.52592468 387.63461304 C-35.1201825 387.18344116 -35.71444031 386.73226929 -36.32670593 386.26742554 C-36.32670593 385.60742554 -36.32670593 384.94742554 -36.32670593 384.26742554 C-37.64670593 383.60742554 -38.96670593 382.94742554 -40.32670593 382.26742554 C-40.32670593 381.60742554 -40.32670593 380.94742554 -40.32670593 380.26742554 C-40.98670593 380.26742554 -41.64670593 380.26742554 -42.32670593 380.26742554 C-43.76258031 378.2512186 -45.05645934 376.2595032 -46.32670593 374.14242554 C-46.86037781 373.2877771 -46.86037781 373.2877771 -47.40483093 372.41586304 C-53.9942165 361.59746882 -53.47712137 349.80701199 -53.4604187 337.49781799 C-53.46268426 336.25689732 -53.46494981 335.01597665 -53.46728402 333.73745233 C-53.47248764 330.32323775 -53.47327436 326.9090762 -53.47208965 323.49486148 C-53.47188438 319.80081555 -53.47741634 316.10677728 -53.48214722 312.41273499 C-53.49042661 305.18716096 -53.49320081 297.96159509 -53.49375959 290.73601671 C-53.49423597 284.859205 -53.49629679 278.98239596 -53.49946022 273.1055851 C-53.50825882 256.41888402 -53.51288075 239.73218935 -53.51212975 223.04548594 C-53.51208979 222.14733684 -53.51204983 221.24918775 -53.51200867 220.32382202 C-53.51196779 219.42456799 -53.51192691 218.52531397 -53.51188479 217.59880982 C-53.51147838 203.02693879 -53.52104872 188.45509361 -53.53514703 173.88323005 C-53.5495315 158.89658791 -53.5564161 143.90995836 -53.55555326 128.92330915 C-53.55522204 120.51919131 -53.55793621 112.11510059 -53.56873131 103.710989 C-53.57786352 96.55604168 -53.57998924 89.40113376 -53.57322188 82.24618312 C-53.56997058 78.60089003 -53.56984939 74.95567243 -53.57857513 71.31038666 C-53.58796605 67.34621807 -53.58162807 63.38215806 -53.57394409 59.41798401 C-53.57908765 58.28341882 -53.58423122 57.14885364 -53.58953065 55.97990769 C-53.52298979 40.35255426 -51.50788637 26.00602552 -40.32670593 14.26742554 C-39.66670593 14.26742554 -39.00670593 14.26742554 -38.32670593 14.26742554 C-38.32670593 13.60742554 -38.32670593 12.94742554 -38.32670593 12.26742554 C-26.567027 2.44797532 -14.98032484 -0.0372949 0 0 Z " fill="#010201" transform="translate(110.32670593261719,47.732574462890625)"/>
<path d="M0 0 C0.99 0 1.98 0 3 0 C4.71140469 1.96185416 6.37873325 3.96302383 8 6 C8.99 6.495 8.99 6.495 10 7 C11.00084333 8.66616038 12.00070155 10.33291261 13 12 C15.05597145 14.40190928 17.19912653 16.69996448 19.35546875 19.01171875 C21 21 21 21 21 23 C18.50638429 21.79618552 16.31856917 20.54571278 14 19 C14 18.34 14 17.68 14 17 C13.484375 16.7525 12.96875 16.505 12.4375 16.25 C10 15 10 15 8.38671875 13.90625 C5.19864222 11.81385387 3.76502191 10.89289693 -0.125 11.4375 C-3.36393603 13.19779132 -5.47671324 15.33653064 -8 18 C-8.66 18 -9.32 18 -10 18 C-10 18.66 -10 19.32 -10 20 C-15.47619048 25 -15.47619048 25 -18 25 C-18.495 26.485 -18.495 26.485 -19 28 C-20.42578125 29.4375 -20.42578125 29.4375 -22.3125 31 C-25.97648989 34.10384755 -29.53685907 37.30327752 -33.0625 40.5625 C-36.32991287 43.5751637 -39.60865257 46.56397121 -43 49.4375 C-44.69322215 50.88379392 -46.36289412 52.36289412 -47.9375 53.9375 C-50.39738208 56.39738208 -53.00560458 58.64361583 -55.63671875 60.91796875 C-59.38700601 64.22194083 -63.02818288 67.6461152 -66.6796875 71.05859375 C-69 73 -69 73 -71 73 C-71 73.66 -71 74.32 -71 75 C-74.78520613 74.45925627 -76.59177555 72.92427254 -79 70 C-79 69.01 -79 68.02 -79 67 C-79.57234375 66.7628125 -80.1446875 66.525625 -80.734375 66.28125 C-83.4879292 64.72406762 -85.16795634 62.87507203 -87.25 60.5 C-87.95640625 59.7059375 -88.6628125 58.911875 -89.390625 58.09375 C-91 56 -91 56 -91 54 C-92.32 54 -93.64 54 -95 54 C-95.07476562 54.53625 -95.14953125 55.0725 -95.2265625 55.625 C-96.86739778 65.4056652 -100.64767017 74.58848261 -104.5859375 83.6484375 C-105.81578115 86.5633708 -106.81410474 89.40141173 -107.6875 92.4375 C-107.93886719 93.30246094 -108.19023437 94.16742188 -108.44921875 95.05859375 C-108.72185547 96.01958984 -108.72185547 96.01958984 -109 97 C-109.66 97 -110.32 97 -111 97 C-111.10183594 97.81726563 -111.20367187 98.63453125 -111.30859375 99.4765625 C-112.1293064 103.65895125 -113.51904991 107.4143137 -115.0625 111.375 C-115.34416016 112.11105469 -115.62582031 112.84710938 -115.91601562 113.60546875 C-116.60566618 115.4055736 -117.30213932 117.2030621 -118 119 C-117.19949219 118.54560547 -117.19949219 118.54560547 -116.3828125 118.08203125 C-112.1842774 115.72126325 -107.96098832 113.40996792 -103.6875 111.1875 C-102.48673828 110.55908203 -102.48673828 110.55908203 -101.26171875 109.91796875 C-99 109 -99 109 -95 109 C-95 108.34 -95 107.68 -95 107 C-93.865625 106.608125 -92.73125 106.21625 -91.5625 105.8125 C-87.55838567 104.31537083 -83.95097415 102.39234657 -80.24609375 100.2734375 C-70.94478528 95 -70.94478528 95 -68 95 C-68 94.34 -68 93.68 -68 93 C-67.09636719 92.74605469 -66.19273437 92.49210937 -65.26171875 92.23046875 C-64.08222656 91.88628906 -62.90273437 91.54210937 -61.6875 91.1875 C-60.51574219 90.85105469 -59.34398437 90.51460938 -58.13671875 90.16796875 C-55.14570658 89.05425438 -54.03740006 88.31238657 -52 86 C-50.36525852 85.29939651 -48.72769983 84.60437163 -47.07421875 83.94921875 C-44.6419798 82.83616025 -42.49847802 81.44774817 -40.25 80 C-35.08442898 76.805293 -29.90300192 75.27935783 -24 74 C-24 73.34 -24 72.68 -24 72 C-22.68 72 -21.36 72 -20 72 C-20 71.34 -20 70.68 -20 70 C-19.40574219 69.78085938 -18.81148438 69.56171875 -18.19921875 69.3359375 C-12.44339734 67.13386586 -7.14582869 64.50974297 -1.7734375 61.5 C1.75344926 59.59250068 5.37154155 57.97442173 9.04296875 56.3671875 C11.85828125 55.06552386 14.57206182 53.62644607 17.30175781 52.15576172 C24.57007328 48.29580736 29.28422336 46.6980218 37.41796875 48.55078125 C41.30901777 50.73471345 42.99624949 53.98475214 45.25 57.75 C45.69601562 58.45382813 46.14203125 59.15765625 46.6015625 59.8828125 C49.07410301 63.91380279 50.60658311 67.18820875 51 72 C51.99 72.33 52.98 72.66 54 73 C55.16796875 75.21484375 55.16796875 75.21484375 56.1875 77.9375 C56.53167969 78.83339844 56.87585938 79.72929687 57.23046875 80.65234375 C58 83 58 83 58 85 C58.66 85 59.32 85 60 85 C60.83790789 86.78953185 61.67019396 88.58169695 62.5 90.375 C62.9640625 91.37273437 63.428125 92.37046875 63.90625 93.3984375 C65 96 65 96 65 98 C65.99 98.33 66.98 98.66 68 99 C69.01147461 100.59472656 69.01147461 100.59472656 69.90234375 102.640625 C70.23556641 103.38183594 70.56878906 104.12304688 70.91210938 104.88671875 C71.25048828 105.66660156 71.58886719 106.44648438 71.9375 107.25 C74.19593745 112.41089945 76.38947283 116.6282171 80 121 C81.1285944 123.1118195 82.19009589 125.26064631 83.1875 127.4375 C83.69667969 128.52933594 84.20585937 129.62117187 84.73046875 130.74609375 C85.94971705 133.87112093 86.58457933 136.68163973 87 140 C87.66 140 88.32 140 89 140 C89 143.3 89 146.6 89 150 C88.34 150 87.68 150 87 150 C86.731875 150.556875 86.46375 151.11375 86.1875 151.6875 C85.795625 152.450625 85.40375 153.21375 85 154 C84.59523438 154.83015625 84.19046875 155.6603125 83.7734375 156.515625 C81.5602862 159.61598673 80.06535997 160.04556402 76.4375 161.0625 C72.48948742 162.24072758 68.67650035 163.47201491 64.875 165.0625 C61.61616562 166.40559788 58.39606278 167.4959125 55 168.4375 C50.47206562 169.7291678 46.55310332 171.67440425 42.40234375 173.87109375 C40.06562332 174.96916238 37.95526114 175.59092946 35.4375 176.125 C33.7359375 176.558125 33.7359375 176.558125 32 177 C31.67 177.99 31.34 178.98 31 180 C27.24590691 181.61814357 23.6351851 182.83221526 19.6875 183.875 C16.62048257 184.81070023 14.0608101 185.87466559 11.1875 187.25 C6.1074033 189.62400903 0.93859997 191.48326147 -4.375 193.25 C-5.1481958 193.50813477 -5.9213916 193.76626953 -6.71801758 194.03222656 C-10.45524444 195.25423913 -14.11190704 196.34940277 -18 197 C-18 197.66 -18 198.32 -18 199 C-19.6396875 199.5878125 -19.6396875 199.5878125 -21.3125 200.1875 C-24.69343976 201.44497233 -27.92993514 202.88991787 -31.1875 204.4375 C-40.32730605 208.60919571 -50.78562254 213.11936381 -61 211 C-64.10160724 209.40413029 -66.49988392 207.41488485 -69 205 C-69.94875 204.0925 -70.8975 203.185 -71.875 202.25 C-72.926875 201.13625 -72.926875 201.13625 -74 200 C-76.713269 197.286731 -78.51998502 197.63733165 -82.3125 197.3125 C-90.22878494 196.29843044 -96.47826156 193.67027202 -103 189 C-103.33 188.01 -103.66 187.02 -104 186 C-101.57605676 186.94572127 -99.20294666 187.89759229 -96.87890625 189.0703125 C-83.47314726 195.17411508 -66.81486682 192.87608676 -53.01953125 189.16796875 C-50.10822344 188.04186133 -49.05318676 187.20415637 -47 185 C-45.08984375 184.375 -45.08984375 184.375 -42.9375 184 C-35.49792714 182.5265781 -28.65417412 180.51940366 -21.93359375 176.9765625 C-17.63589176 174.80600594 -13.14216623 173.30593738 -8.5 172.0625 C-5.67500011 171.20491075 -3.66389982 170.33238962 -1.125 168.9375 C2.98117044 166.80837459 7.33799141 165.49425942 12 166 C13.57421875 167.43359375 13.57421875 167.43359375 15 169 C15.99 169.33 16.98 169.66 18 170 C18.66 168.35 19.32 166.7 20 165 C20.66 165 21.32 165 22 165 C22.24492187 164.45730469 22.48984375 163.91460937 22.7421875 163.35546875 C26.97033159 155.43754674 33.36117831 148.34731597 39.46875 141.83984375 C41.2109944 139.97337603 41.2109944 139.97337603 42 137 C41.44054687 137.03480469 40.88109375 137.06960937 40.3046875 137.10546875 C35.2357475 137.2766066 30.72028417 136.82452729 25.78125 135.65625 C17.12489965 133.73305901 8.40527798 132.51879129 -0.375 131.3125 C-1.9974609 131.08575151 -3.61985722 130.85854054 -5.2421875 130.63085938 C-9.16073728 130.08192515 -13.08009758 129.53918658 -17 129 C-16.3503125 129.83144531 -16.3503125 129.83144531 -15.6875 130.6796875 C-15.130625 131.40414062 -14.57375 132.12859375 -14 132.875 C-13.443125 133.59429687 -12.88625 134.31359375 -12.3125 135.0546875 C-11 137 -11 137 -11 139 C-10.34 139 -9.68 139 -9 139 C-9 139.99 -9 140.98 -9 142 C-17.78158836 146.06176826 -26.74634046 149.84893852 -36.0625 152.5 C-43.15617385 154.54142704 -49.85868058 157.61822786 -56.60546875 160.5859375 C-69.6338658 166.20092117 -81.63708112 167.16124524 -95.6875 167.3125 C-97.42737183 167.33932861 -97.42737183 167.33932861 -99.20239258 167.36669922 C-100.29447021 167.36557129 -101.38654785 167.36444336 -102.51171875 167.36328125 C-103.98838013 167.36775269 -103.98838013 167.36775269 -105.49487305 167.37231445 C-108 167 -108 167 -109.71801758 165.78979492 C-111 164 -111 164 -111.9609375 161.55078125 C-113.12272545 158.69872286 -114.40031028 157.29253509 -116.625 155.1875 C-117.68460938 154.16269531 -117.68460938 154.16269531 -118.765625 153.1171875 C-119.87164062 152.06917969 -119.87164062 152.06917969 -121 151 C-122.46533474 149.61151848 -123.92394226 148.21589526 -125.375 146.8125 C-126.02210938 146.20019531 -126.66921875 145.58789062 -127.3359375 144.95703125 C-129.20361467 142.76053768 -130.07204757 140.71355786 -131 138 C-131.66 138 -132.32 138 -133 138 C-136.32691642 130.95869497 -136.24756264 122.21181271 -134.0546875 114.80859375 C-132.79083053 111.82382462 -131.40913392 108.9186445 -130 106 C-129.14457023 103.88379836 -128.31161548 101.75838926 -127.5 99.625 C-127.08878906 98.54992187 -126.67757812 97.47484375 -126.25390625 96.3671875 C-124.539196 91.76257617 -122.91391822 87.12815098 -121.30859375 82.484375 C-120.30271191 79.80602692 -119.23077726 77.24520633 -118.05078125 74.64453125 C-116.02483325 70.15515548 -114.37722962 65.58282877 -112.75 60.9375 C-110.19604495 53.79291837 -107.24557822 47.02959934 -103.66503906 40.33959961 C-101.50463147 36.25961853 -100.12317704 32.4470969 -99 28 C-98.34 28 -97.68 28 -97 28 C-96.855625 27.05125 -96.71125 26.1025 -96.5625 25.125 C-96 22 -96 22 -95 20 C-94.34 20 -93.68 20 -93 20 C-92.814375 19.0409375 -92.814375 19.0409375 -92.625 18.0625 C-92.41875 17.381875 -92.2125 16.70125 -92 16 C-88.48915948 14.24457974 -84.83111562 14.45182765 -81 15 C-76.24665921 17.01754703 -73.05042524 19.17789442 -71 24 C-70.34 24 -69.68 24 -69 24 C-67.7109375 25.4609375 -67.7109375 25.4609375 -66.375 27.375 C-65.92898437 28.00148438 -65.48296875 28.62796875 -65.0234375 29.2734375 C-64 31 -64 31 -64 33 C-63.41089844 33.08507812 -62.82179688 33.17015625 -62.21484375 33.2578125 C-59.3739458 34.20978889 -58.4114032 35.54358857 -56.5625 37.875 C-53.96768404 40.99548988 -51.70867375 43.20185515 -48 45 C-47.77183594 44.43667969 -47.54367188 43.87335938 -47.30859375 43.29296875 C-45.63771072 40.36518267 -43.57908203 38.5546771 -41.0625 36.3125 C-40.0828125 35.43851563 -39.103125 34.56453125 -38.09375 33.6640625 C-34.29562908 30.35873575 -30.3702864 27.21408343 -26.41015625 24.10546875 C-23.9337851 22.06811362 -23.9337851 22.06811362 -22.015625 19.515625 C-19.80690295 16.7590029 -17.45181733 14.75596821 -14.6875 12.5625 C-11.37533774 9.9145414 -8.11052965 7.2505641 -4.9375 4.4375 C-2 2 -2 2 0 2 C0 1.34 0 0.68 0 0 Z " fill="#3EC7A7" transform="translate(290,84)"/>
<path d="M0 0 C0.69931641 -0.02900391 1.39863281 -0.05800781 2.11914062 -0.08789062 C7.23615 -0.15011805 10.16343572 0.89235349 14.1875 4.3125 C15.08229284 6.99687852 15.32199948 8.58116666 15.34863281 11.33740234 C15.35824036 12.14188812 15.3678479 12.9463739 15.37774658 13.77523804 C15.38199646 14.64089386 15.38624634 15.50654968 15.390625 16.3984375 C15.39632507 17.29237213 15.40202515 18.18630676 15.40789795 19.10733032 C15.41734256 20.99862486 15.42387979 22.88993581 15.42773438 24.78125 C15.43743973 27.66956375 15.46846786 30.55716574 15.5 33.4453125 C15.50653036 35.28384995 15.5117807 37.12239248 15.515625 38.9609375 C15.5279718 39.82254486 15.5403186 40.68415222 15.55303955 41.5718689 C15.53551645 46.3059868 15.29046986 49.48066033 12.1875 53.3125 C8.11412789 55.70560612 3.80441149 55.71166771 -0.8125 55.75 C-1.51117188 55.78287109 -2.20984375 55.81574219 -2.9296875 55.84960938 C-6.89415804 55.89075011 -8.61735746 55.46793934 -11.75 52.97265625 C-14.29562364 49.68938031 -14.93321308 47.32801556 -14.98950195 43.28759766 C-15.00233719 42.48311188 -15.01517242 41.6786261 -15.02839661 40.84976196 C-15.03578354 39.98410614 -15.04317047 39.11845032 -15.05078125 38.2265625 C-15.058853 37.33262787 -15.06692474 36.43869324 -15.07524109 35.51766968 C-15.0890677 33.62638278 -15.09979622 31.73507107 -15.10766602 29.84375 C-15.12489414 26.95524816 -15.1687941 24.06788663 -15.21289062 21.1796875 C-15.22301667 19.34115424 -15.23153305 17.50261126 -15.23828125 15.6640625 C-15.25578934 14.80245514 -15.27329742 13.94084778 -15.29133606 13.0531311 C-15.27664817 8.98253924 -15.13371201 6.84030595 -12.97338867 3.29052734 C-9.11554 -0.2408578 -4.96549828 0.06752718 0 0 Z " fill="#40CAA3" transform="translate(178.8125,333.6875)"/>
<path d="M0 0 C2.14576637 -0.02685938 4.29162645 -0.04633088 6.4375 -0.0625 C7.63246094 -0.07410156 8.82742187 -0.08570313 10.05859375 -0.09765625 C13 0 13 0 14 1 C14.08871273 4.02977804 14.1151935 7.03667022 14.09765625 10.06640625 C14.0962413 10.97502914 14.09482635 11.88365204 14.09336853 12.81980896 C14.08775193 15.73407221 14.07519665 18.64825981 14.0625 21.5625 C14.05748714 23.53320202 14.05292386 25.50390524 14.04882812 27.47460938 C14.03777711 32.31643559 14.02050138 37.15820495 14 42 C14.99 42 15.98 42 17 42 C17 28.14 17 14.28 17 0 C21.29 0 25.58 0 30 0 C31.63791517 1.63791517 31.13567543 3.50520084 31.14526367 5.76342773 C31.15164352 6.77795517 31.15802338 7.7924826 31.16459656 8.8377533 C31.16570938 9.94188065 31.1668222 11.046008 31.16796875 12.18359375 C31.17129715 13.30943375 31.17462555 14.43527374 31.17805481 15.5952301 C31.18312894 17.98185821 31.18546299 20.36849345 31.18530273 22.75512695 C31.18748851 26.41824974 31.2056374 30.08107122 31.22460938 33.74414062 C31.22754326 36.05729063 31.22952809 38.37044208 31.23046875 40.68359375 C31.23765427 41.78569687 31.24483978 42.88779999 31.25224304 44.02330017 C31.24916641 45.04097977 31.24608978 46.05865936 31.24291992 47.10717773 C31.24434494 48.00572983 31.24576996 48.90428192 31.24723816 49.83006287 C31 52 31 52 29 54 C21.98614103 56.42787426 14.34984985 57.03617955 7 56 C3.80002437 53.90238697 2.12749694 52.19124541 0 49 C-0.24050903 46.77900696 -0.24050903 46.77900696 -0.22705078 44.16137695 C-0.22689972 43.1805867 -0.22674866 42.19979645 -0.22659302 41.18928528 C-0.21627045 40.13295395 -0.20594788 39.07662262 -0.1953125 37.98828125 C-0.1924826 36.90491989 -0.18965271 35.82155853 -0.18673706 34.70536804 C-0.17553091 31.24096692 -0.15042534 27.77682315 -0.125 24.3125 C-0.11497077 21.96549852 -0.10584482 19.618493 -0.09765625 17.27148438 C-0.07559016 11.51423493 -0.04210827 5.75713585 0 0 Z " fill="#3FCBA5" transform="translate(213,334)"/>
<path d="M0 0 C22 0 22 0 28 3 C31.18062145 8.42337469 30.3291961 14.90926422 30.3125 21 C30.32861328 22.175625 30.34472656 23.35125 30.36132812 24.5625 C30.36197266 25.696875 30.36261719 26.83125 30.36328125 28 C30.36626221 29.03125 30.36924316 30.0625 30.37231445 31.125 C29.81860463 35.40072907 28.12671024 38.03898244 24.875 40.8125 C20.77621472 42.50547653 17.41798924 42.19782041 13 42 C13 46.29 13 50.58 13 55 C8.71 55 4.42 55 0 55 C0 36.85 0 18.7 0 0 Z " fill="#40C59C" transform="translate(294,334)"/>
<path d="M0 0 C4.29 0 8.58 0 13 0 C13.09218573 4.16372198 13.17169966 8.32386084 13.21972656 12.48779297 C13.23975843 13.90197795 13.26699248 15.31608097 13.30175781 16.72998047 C13.35065489 18.77071419 13.37305123 20.8103469 13.390625 22.8515625 C13.41157227 24.07697754 13.43251953 25.30239258 13.45410156 26.56494141 C12.90654201 30.70696443 11.69453544 32.83312278 9 36 C7.02 36.495 7.02 36.495 5 37 C4.67 42.94 4.34 48.88 4 55 C-0.29 55 -4.58 55 -9 55 C-9 49.06 -9 43.12 -9 37 C-10.65 36.67 -12.3 36.34 -14 36 C-16.62791013 33.63563182 -16.97557504 32.23665075 -17.34057617 28.70019531 C-17.32486572 27.42241211 -17.30915527 26.14462891 -17.29296875 24.828125 C-17.28872391 24.1457074 -17.28447906 23.46328979 -17.28010559 22.76019287 C-17.26336972 20.58971996 -17.22572959 18.42019021 -17.1875 16.25 C-17.17244646 14.77475303 -17.15875922 13.29949145 -17.14648438 11.82421875 C-17.11348377 8.21584156 -17.06173767 4.6080129 -17 1 C-13.04 1 -9.08 1 -5 1 C-4.67 8.92 -4.34 16.84 -4 25 C-3.01 25 -2.02 25 -1 25 C-0.67 16.75 -0.34 8.5 0 0 Z " fill="#40CFA3" transform="translate(132,334)"/>
<path d="M0 0 C3.45211406 1.87278521 4.99063805 4.57035844 6.90234375 7.87109375 C7.45341797 8.76248047 7.45341797 8.76248047 8.015625 9.671875 C8.92740594 11.19609748 9.73638891 12.78081418 10.52734375 14.37109375 C10.19734375 15.03109375 9.86734375 15.69109375 9.52734375 16.37109375 C8.20734375 15.71109375 6.88734375 15.05109375 5.52734375 14.37109375 C5.52734375 13.05109375 5.52734375 11.73109375 5.52734375 10.37109375 C2.40536897 11.68005095 2.40536897 11.68005095 0.52734375 14.37109375 C0.80846439 16.37909831 1.13802342 18.38123426 1.52734375 20.37109375 C2.84734375 20.70109375 4.16734375 21.03109375 5.52734375 21.37109375 C5.52734375 23.02109375 5.52734375 24.67109375 5.52734375 26.37109375 C6.18734375 26.37109375 6.84734375 26.37109375 7.52734375 26.37109375 C7.19734375 28.68109375 6.86734375 30.99109375 6.52734375 33.37109375 C5.20734375 33.37109375 3.88734375 33.37109375 2.52734375 33.37109375 C2.52734375 32.38109375 2.52734375 31.39109375 2.52734375 30.37109375 C1.86734375 30.37109375 1.20734375 30.37109375 0.52734375 30.37109375 C-2.47265625 24.74609375 -2.47265625 24.74609375 -2.47265625 21.37109375 C-3.13265625 21.37109375 -3.79265625 21.37109375 -4.47265625 21.37109375 C-4.80265625 19.72109375 -5.13265625 18.07109375 -5.47265625 16.37109375 C-10.09265625 16.70109375 -14.71265625 17.03109375 -19.47265625 17.37109375 C-19.47265625 18.03109375 -19.47265625 18.69109375 -19.47265625 19.37109375 C-25.97265625 22.37109375 -25.97265625 22.37109375 -30.47265625 22.37109375 C-30.47265625 21.38109375 -30.47265625 20.39109375 -30.47265625 19.37109375 C-31.46265625 19.70109375 -32.45265625 20.03109375 -33.47265625 20.37109375 C-34.80598958 23.37109375 -34.80598958 23.37109375 -33.47265625 26.37109375 C-34.46265625 26.70109375 -35.45265625 27.03109375 -36.47265625 27.37109375 C-36.98828125 27.88671875 -37.50390625 28.40234375 -38.03515625 28.93359375 C-38.50953125 29.40796875 -38.98390625 29.88234375 -39.47265625 30.37109375 C-40.13265625 30.37109375 -40.79265625 30.37109375 -41.47265625 30.37109375 C-41.80910156 31.33789062 -41.80910156 31.33789062 -42.15234375 32.32421875 C-43.47265625 34.37109375 -43.47265625 34.37109375 -45.85546875 34.98046875 C-46.76039063 35.026875 -47.6653125 35.07328125 -48.59765625 35.12109375 C-49.50773437 35.1778125 -50.4178125 35.23453125 -51.35546875 35.29296875 C-52.05414063 35.31875 -52.7528125 35.34453125 -53.47265625 35.37109375 C-54.59765625 31.62109375 -54.59765625 31.62109375 -53.47265625 29.37109375 C-54.13265625 29.04109375 -54.79265625 28.71109375 -55.47265625 28.37109375 C-54.81265625 27.05109375 -54.15265625 25.73109375 -53.47265625 24.37109375 C-54.79265625 24.04109375 -56.11265625 23.71109375 -57.47265625 23.37109375 C-57.47265625 22.71109375 -57.47265625 22.05109375 -57.47265625 21.37109375 C-56.87839844 21.15195313 -56.28414063 20.9328125 -55.671875 20.70703125 C-49.91605359 18.50495961 -44.61848494 15.88083672 -39.24609375 12.87109375 C-35.71920699 10.96359443 -32.1011147 9.34551548 -28.4296875 7.73828125 C-25.614375 6.43661761 -22.90059443 4.99753982 -20.17089844 3.52685547 C-12.93437334 -0.31621611 -8.09907375 -2.05995399 0 0 Z " fill="#41C593" transform="translate(327.47265625,132.62890625)"/>
<path d="M0 0 C4.62 0 9.24 0 14 0 C14 17.82 14 35.64 14 54 C9.38 54 4.76 54 0 54 C0 36.18 0 18.36 0 0 Z " fill="#3DBC98" transform="translate(374,335)"/>
<path d="M0 0 C0.99 0 1.98 0 3 0 C4.71140469 1.96185416 6.37873325 3.96302383 8 6 C8.99 6.495 8.99 6.495 10 7 C11.00084333 8.66616038 12.00070155 10.33291261 13 12 C15.05597145 14.40190928 17.19912653 16.69996448 19.35546875 19.01171875 C21 21 21 21 21 23 C18.50638429 21.79618552 16.31856917 20.54571278 14 19 C14 18.34 14 17.68 14 17 C13.484375 16.7525 12.96875 16.505 12.4375 16.25 C10 15 10 15 8.38671875 13.90625 C5.19864222 11.81385387 3.76502191 10.89289693 -0.125 11.4375 C-3.36393603 13.19779132 -5.47671324 15.33653064 -8 18 C-8.66 18 -9.32 18 -10 18 C-10 18.66 -10 19.32 -10 20 C-15.47619048 25 -15.47619048 25 -18 25 C-18.495 26.485 -18.495 26.485 -19 28 C-20.42578125 29.4375 -20.42578125 29.4375 -22.3125 31 C-25.97648989 34.10384755 -29.53685907 37.30327752 -33.0625 40.5625 C-36.32991287 43.5751637 -39.60865257 46.56397121 -43 49.4375 C-44.69322215 50.88379392 -46.36289412 52.36289412 -47.9375 53.9375 C-51.98201581 57.98201581 -56.2385448 61.82569653 -61 65 C-61 63.35 -61 61.7 -61 60 C-60.34 60 -59.68 60 -59 60 C-58.525625 59.195625 -58.05125 58.39125 -57.5625 57.5625 C-56 55 -56 55 -53 54 C-51.97803008 53.02246356 -50.98020375 52.0194119 -50 51 C-48.68036291 49.98199424 -47.34990354 48.97751635 -46 48 C-47.98 48 -49.96 48 -52 48 C-52.33 47.34 -52.66 46.68 -53 46 C-51.02 46 -49.04 46 -47 46 C-46.7525 45.46375 -46.505 44.9275 -46.25 44.375 C-42.18676435 36.65485226 -36.85945788 32.36610711 -30 27 C-27.11510008 24.71685835 -24.43830728 22.56661518 -22.171875 19.63671875 C-19.88617156 16.861809 -17.50052774 14.79461961 -14.6875 12.5625 C-11.37533774 9.9145414 -8.11052965 7.2505641 -4.9375 4.4375 C-2 2 -2 2 0 2 C0 1.34 0 0.68 0 0 Z " fill="#47CD92" transform="translate(290,84)"/>
<path d="M0 0 C4.29 0 8.58 0 13 0 C14 1 14 1 14.11352539 4.87719727 C14.11336621 6.60694167 14.10766849 8.33669081 14.09765625 10.06640625 C14.0962413 10.97502914 14.09482635 11.88365204 14.09336853 12.81980896 C14.08775193 15.73407221 14.07519665 18.64825981 14.0625 21.5625 C14.05748714 23.53320202 14.05292386 25.50390524 14.04882812 27.47460938 C14.03777711 32.31643559 14.02050138 37.15820495 14 42 C14.99 42 15.98 42 17 42 C17 28.14 17 14.28 17 0 C21.29 0 25.58 0 30 0 C31.63791517 1.63791517 31.13567543 3.50520084 31.14526367 5.76342773 C31.15164352 6.77795517 31.15802338 7.7924826 31.16459656 8.8377533 C31.16570938 9.94188065 31.1668222 11.046008 31.16796875 12.18359375 C31.17129715 13.30943375 31.17462555 14.43527374 31.17805481 15.5952301 C31.18312894 17.98185821 31.18546299 20.36849345 31.18530273 22.75512695 C31.18748851 26.41824974 31.2056374 30.08107122 31.22460938 33.74414062 C31.22754326 36.05729063 31.22952809 38.37044208 31.23046875 40.68359375 C31.23765427 41.78569687 31.24483978 42.88779999 31.25224304 44.02330017 C31.24916641 45.04097977 31.24608978 46.05865936 31.24291992 47.10717773 C31.24434494 48.00572983 31.24576996 48.90428192 31.24723816 49.83006287 C31 52 31 52 29 54 C21.90950838 56.45440095 14.43953285 56.94484819 7 56 C4.42780906 54.56656544 3.63069017 53.5087541 2 51 C2.71929687 51.47566406 2.71929687 51.47566406 3.453125 51.9609375 C7.16222106 53.47415767 10.77809202 53.46691411 14.75 53.625 C15.54277344 53.66367187 16.33554688 53.70234375 17.15234375 53.7421875 C19.10119416 53.836108 21.05056451 53.91912822 23 54 C23 53.34 23 52.68 23 52 C23.99 52 24.98 52 26 52 C26.33 50.68 26.66 49.36 27 48 C27.66 48 28.32 48 29 48 C28.9278125 46.93007813 28.855625 45.86015625 28.78125 44.7578125 C27.91290305 30.83485203 27.89386636 16.94595972 28 3 C23.65815798 3.18464366 23.65815798 3.18464366 20 5 C19.94854126 7.63125674 19.95822695 10.237303 20.0078125 12.8671875 C20.02533249 14.49087913 20.04224042 16.11457745 20.05859375 17.73828125 C20.08955773 20.30829189 20.12505358 22.87797177 20.17138672 25.44775391 C20.21369186 27.92094073 20.23716034 30.3937379 20.2578125 32.8671875 C20.27643341 33.63602264 20.29505432 34.40485779 20.3142395 35.19699097 C20.33939817 40.42126585 20.33939817 40.42126585 18.85888672 42.94580078 C17 44 17 44 11 45 C11.33 30.81 11.66 16.62 12 2 C8.37 2 4.74 2 1 2 C1.33 17.84 1.66 33.68 2 50 C1.34 49.67 0.68 49.34 0 49 C0 32.83 0 16.66 0 0 Z " fill="#4CC39A" transform="translate(213,334)"/>
<path d="M0 0 C0 0.66 0 1.32 0 2 C0.99 2.33 1.98 2.66 3 3 C1.20755859 3.56267578 1.20755859 3.56267578 -0.62109375 4.13671875 C-11.97320457 7.69631649 -11.97320457 7.69631649 -22.46875 13.21484375 C-23.22671875 13.60349609 -23.22671875 13.60349609 -24 14 C-24.99 13.505 -24.99 13.505 -26 13 C-30.35296258 14.41177165 -34.83555435 16.17971714 -37.359375 20.125 C-37.90078125 20.74375 -38.4421875 21.3625 -39 22 C-41.1640625 22.1015625 -41.1640625 22.1015625 -43.625 21.625 C-48.84352881 20.84989499 -52.97406121 21.5310662 -58 23 C-58.33 24.98 -58.66 26.96 -59 29 C-58.01 29.33 -57.02 29.66 -56 30 C-56 30.99 -56 31.98 -56 33 C-54.68 33.33 -53.36 33.66 -52 34 C-53.625 34.8125 -53.625 34.8125 -56 35 C-59.31294864 32.65332805 -61.49973615 30.73561774 -63.78515625 27.375 C-66.66859879 24.28305456 -68.27713148 24.36111626 -72.4375 24.125 C-80.38426931 23.26701547 -86.50557079 20.65071566 -93 16 C-93.33 15.01 -93.66 14.02 -94 13 C-91.57605676 13.94572127 -89.20294666 14.89759229 -86.87890625 16.0703125 C-73.47314726 22.17411508 -56.81486682 19.87608676 -43.01953125 16.16796875 C-40.10822344 15.04186133 -39.05318676 14.20415637 -37 12 C-35.08984375 11.375 -35.08984375 11.375 -32.9375 11 C-25.50733236 9.52844083 -18.66259555 7.53003017 -11.953125 3.984375 C-4.04761905 0 -4.04761905 0 0 0 Z " fill="#42AAA6" transform="translate(280,257)"/>
<path d="M0 0 C3.14809833 1.30900308 4.514605 2.514605 7 5 C7.75 7.5 7.75 7.5 7 10 C2.01747157 15.76924345 2.01747157 15.76924345 -2.390625 16.2734375 C-11.05784532 16.58128959 -11.05784532 16.58128959 -14.6875 13.5 C-15.450625 12.675 -16.21375 11.85 -17 11 C-17 11.99 -17 12.98 -17 14 C-17.99 13.67 -18.98 13.34 -20 13 C-19.51176471 6.65294118 -19.51176471 6.65294118 -17.1875 3.6875 C-11.76414428 -0.49623156 -6.71904227 -0.9274171 0 0 Z " fill="#3E8E82" transform="translate(304,226)"/>
<path d="M0 0 C0 0.66 0 1.32 0 2 C0.66 2 1.32 2 2 2 C2 2.66 2 3.32 2 4 C1.01 4.33 0.02 4.66 -1 5 C-0.67 5.99 -0.34 6.98 0 8 C-0.33 8.99 -0.66 9.98 -1 11 C-0.67 11.99 -0.34 12.98 0 14 C-0.99 14.33 -1.98 14.66 -3 15 C-3.515625 15.515625 -4.03125 16.03125 -4.5625 16.5625 C-5.036875 17.036875 -5.51125 17.51125 -6 18 C-6.66 18 -7.32 18 -8 18 C-8.33644531 18.96679688 -8.33644531 18.96679688 -8.6796875 19.953125 C-10 22 -10 22 -12.3828125 22.609375 C-13.28773438 22.65578125 -14.19265625 22.7021875 -15.125 22.75 C-16.03507812 22.80671875 -16.94515625 22.8634375 -17.8828125 22.921875 C-18.58148438 22.94765625 -19.28015625 22.9734375 -20 23 C-21.125 19.25 -21.125 19.25 -20 17 C-20.66 16.67 -21.32 16.34 -22 16 C-21.34 14.68 -20.68 13.36 -20 12 C-21.32 11.67 -22.64 11.34 -24 11 C-24 10.34 -24 9.68 -24 9 C-19.22691458 7.07316019 -14.45607311 5.1524703 -9.625 3.375 C-6.16416342 2.13202163 -6.16416342 2.13202163 -3.625 0.8125 C-2 0 -2 0 0 0 Z " fill="#42CF9D" transform="translate(294,145)"/>
<path d="M0 0 C0.69931641 -0.02900391 1.39863281 -0.05800781 2.11914062 -0.08789062 C7.23615 -0.15011805 10.16343572 0.89235349 14.1875 4.3125 C15.08229284 6.99687852 15.32199948 8.58116666 15.34863281 11.33740234 C15.35824036 12.14188812 15.3678479 12.9463739 15.37774658 13.77523804 C15.38199646 14.64089386 15.38624634 15.50654968 15.390625 16.3984375 C15.39632507 17.29237213 15.40202515 18.18630676 15.40789795 19.10733032 C15.41734256 20.99862486 15.42387979 22.88993581 15.42773438 24.78125 C15.43743973 27.66956375 15.46846786 30.55716574 15.5 33.4453125 C15.50653036 35.28384995 15.5117807 37.12239248 15.515625 38.9609375 C15.5279718 39.82254486 15.5403186 40.68415222 15.55303955 41.5718689 C15.53551645 46.3059868 15.29046986 49.48066033 12.1875 53.3125 C8.11412789 55.70560612 3.80441149 55.71166771 -0.8125 55.75 C-1.51117188 55.78287109 -2.20984375 55.81574219 -2.9296875 55.84960938 C-6.89415804 55.89075011 -8.61735746 55.46793934 -11.75 52.97265625 C-14.29562364 49.68938031 -14.93321308 47.32801556 -14.98950195 43.28759766 C-15.00233719 42.48311188 -15.01517242 41.6786261 -15.02839661 40.84976196 C-15.03578354 39.98410614 -15.04317047 39.11845032 -15.05078125 38.2265625 C-15.058853 37.33262787 -15.06692474 36.43869324 -15.07524109 35.51766968 C-15.0890677 33.62638278 -15.09979622 31.73507107 -15.10766602 29.84375 C-15.12489414 26.95524816 -15.1687941 24.06788663 -15.21289062 21.1796875 C-15.22301667 19.34115424 -15.23153305 17.50261126 -15.23828125 15.6640625 C-15.25578934 14.80245514 -15.27329742 13.94084778 -15.29133606 13.0531311 C-15.27664817 8.98253924 -15.13371201 6.84030595 -12.97338867 3.29052734 C-9.11554 -0.2408578 -4.96549828 0.06752718 0 0 Z M-2.8125 1.3125 C-2.8125 1.9725 -2.8125 2.6325 -2.8125 3.3125 C-5.4525 3.3125 -8.0925 3.3125 -10.8125 3.3125 C-11.1425 4.3025 -11.4725 5.2925 -11.8125 6.3125 C-12.4725 6.3125 -13.1325 6.3125 -13.8125 6.3125 C-13.91208538 11.41701702 -13.98430331 16.52095677 -14.03222656 21.6262207 C-14.0522241 23.35939395 -14.07943148 25.09250075 -14.11425781 26.82543945 C-14.93855638 40.32508088 -14.93855638 40.32508088 -9.8125 52.3125 C-7.36700628 53.83346856 -7.36700628 53.83346856 -4.5625 53.9375 C-3.60214844 54.040625 -2.64179688 54.14375 -1.65234375 54.25 C2.10683996 54.33273307 5.4928562 54.0096026 9.1875 53.3125 C9.5175 52.3225 9.8475 51.3325 10.1875 50.3125 C10.8475 50.3125 11.5075 50.3125 12.1875 50.3125 C13.27458411 45.91666435 13.3325227 41.62467283 13.3203125 37.125 C13.32126923 36.34487549 13.32222595 35.56475098 13.32321167 34.76098633 C13.32389001 33.11702392 13.32205993 31.47305878 13.31787109 29.82910156 C13.31251793 27.32090201 13.31782782 24.81288152 13.32421875 22.3046875 C13.32355791 20.70312461 13.32227662 19.10156182 13.3203125 17.5 C13.32233673 16.75403564 13.32436096 16.00807129 13.32644653 15.23950195 C13.30958381 11.47216458 13.09329996 7.975278 12.1875 4.3125 C9.8775 3.9825 7.5675 3.6525 5.1875 3.3125 C5.1875 2.6525 5.1875 1.9925 5.1875 1.3125 C2.5475 1.3125 -0.0925 1.3125 -2.8125 1.3125 Z " fill="#46B28E" transform="translate(178.8125,333.6875)"/>
<path d="M0 0 C4.29 0 8.58 0 13 0 C14 1 14 1 14.11352539 4.87719727 C14.11336621 6.60694167 14.10766849 8.33669081 14.09765625 10.06640625 C14.0962413 10.97502914 14.09482635 11.88365204 14.09336853 12.81980896 C14.08775193 15.73407221 14.07519665 18.64825981 14.0625 21.5625 C14.05748714 23.53320202 14.05292386 25.50390524 14.04882812 27.47460938 C14.03777711 32.31643559 14.02050138 37.15820495 14 42 C14.99 42 15.98 42 17 42 C17 28.14 17 14.28 17 0 C21.29 0 25.58 0 30 0 C30 0.33 30 0.66 30 1 C26.04 1 22.08 1 18 1 C18 14.86 18 28.72 18 43 C13 45 13 45 11 45 C11.33 30.81 11.66 16.62 12 2 C8.37 2 4.74 2 1 2 C1.33 17.84 1.66 33.68 2 50 C1.34 49.67 0.68 49.34 0 49 C0 32.83 0 16.66 0 0 Z " fill="#398A70" transform="translate(213,334)"/>
<path d="M0 0 C4.29 0 8.58 0 13 0 C13.09218573 4.16372198 13.17169966 8.32386084 13.21972656 12.48779297 C13.23975843 13.90197795 13.26699248 15.31608097 13.30175781 16.72998047 C13.35065489 18.77071419 13.37305123 20.8103469 13.390625 22.8515625 C13.41157227 24.07697754 13.43251953 25.30239258 13.45410156 26.56494141 C12.90654201 30.70696443 11.69453544 32.83312278 9 36 C7.02 36.495 7.02 36.495 5 37 C4.67 42.94 4.34 48.88 4 55 C-0.29 55 -4.58 55 -9 55 C-9 49.06 -9 43.12 -9 37 C-9.99 36.67 -10.98 36.34 -12 36 C-10.35 36.33 -8.7 36.66 -7 37 C-6.0639658 40.79267192 -6.01723748 43.93674565 -6.4375 47.8125 C-6.53933594 48.78832031 -6.64117187 49.76414062 -6.74609375 50.76953125 C-6.82988281 51.50558594 -6.91367188 52.24164063 -7 53 C-3.7 53 -0.4 53 3 53 C2.96519531 51.72382813 2.93039063 50.44765625 2.89453125 49.1328125 C2.86639769 47.46355479 2.83909707 45.7942829 2.8125 44.125 C2.78736328 43.28324219 2.76222656 42.44148438 2.73632812 41.57421875 C2.72666016 40.76855469 2.71699219 39.96289062 2.70703125 39.1328125 C2.6913208 38.38918457 2.67561035 37.64555664 2.65942383 36.87939453 C2.77181396 36.25919434 2.8842041 35.63899414 3 35 C6 33 6 33 9 33 C9.83103 29.31803434 10.18107734 25.81284545 10.31640625 22.04296875 C10.35830078 20.93115234 10.40019531 19.81933594 10.44335938 18.67382812 C10.48267578 17.52333984 10.52199219 16.37285156 10.5625 15.1875 C10.60568359 14.01767578 10.64886719 12.84785156 10.69335938 11.64257812 C10.79918279 8.76182969 10.90126825 5.88099877 11 3 C6.545 3.495 6.545 3.495 2 4 C1.67 10.93 1.34 17.86 1 25 C0.67 25 0.34 25 0 25 C0 16.75 0 8.5 0 0 Z " fill="#44A882" transform="translate(132,334)"/>
<path d="M0 0 C2.38164192 2.84260487 3 4.28405267 3 8 C3.66 8 4.32 8 5 8 C5 8.66 5 9.32 5 10 C6.32 10.33 7.64 10.66 9 11 C9 12.65 9 14.3 9 16 C9.66 16 10.32 16 11 16 C10.67 18.31 10.34 20.62 10 23 C8.68 23 7.36 23 6 23 C6 22.01 6 21.02 6 20 C5.34 20 4.68 20 4 20 C1 14.375 1 14.375 1 11 C0.34 11 -0.32 11 -1 11 C-1.33 9.35 -1.66 7.7 -2 6 C-6.62 6.33 -11.24 6.66 -16 7 C-16 7.66 -16 8.32 -16 9 C-22.5 12 -22.5 12 -27 12 C-26 9 -26 9 -23.5625 7.5625 C-19.83374011 5.927079 -16.07210186 4.4192832 -12.26953125 2.96484375 C-4.09229566 -0.51153696 -4.09229566 -0.51153696 0 0 Z " fill="#3EB289" transform="translate(324,143)"/>
<path d="M0 0 C2.31243792 -0.02685412 4.6249627 -0.04632841 6.9375 -0.0625 C8.22527344 -0.07410156 9.51304687 -0.08570313 10.83984375 -0.09765625 C14 0 14 0 15 1 C15.04063832 2.66617115 15.042721 4.33388095 15 6 C14.01 6 13.02 6 12 6 C11.67 7.32 11.34 8.64 11 10 C9.58456585 10.19658808 8.16755969 10.38187546 6.75 10.5625 C5.96109375 10.66691406 5.1721875 10.77132812 4.359375 10.87890625 C1.99467126 11.00027349 0.2488963 10.69633257 -2 10 C-2.18311068 5.9715651 -1.94158017 3.51624755 0 0 Z " fill="#3EBEAD" transform="translate(294,230)"/>
<path d="M0 0 C0.99 0 1.98 0 3 0 C4.71140469 1.96185416 6.37873325 3.96302383 8 6 C8.66 6.33 9.32 6.66 10 7 C11.00084333 8.66616038 12.00070155 10.33291261 13 12 C15.05597145 14.40190928 17.19912653 16.69996448 19.35546875 19.01171875 C21 21 21 21 21 23 C18.50638429 21.79618552 16.31856917 20.54571278 14 19 C14 18.34 14 17.68 14 17 C13.484375 16.7525 12.96875 16.505 12.4375 16.25 C10 15 10 15 8.3515625 13.94140625 C4.5022083 11.5091855 4.5022083 11.5091855 0.0625 11.25 C-0.618125 11.4975 -1.29875 11.745 -2 12 C-2.99 10.68 -3.98 9.36 -5 8 C-4.01 6.02 -3.02 4.04 -2 2 C-1.34 2 -0.68 2 0 2 C0 1.34 0 0.68 0 0 Z " fill="#3EAB75" transform="translate(290,84)"/>
<path d="M0 0 C0.33 0 0.66 0 1 0 C1.05058332 7.2265322 1.08568412 14.45301899 1.10986328 21.6796875 C1.11993983 24.13966579 1.13360131 26.59963206 1.15087891 29.05957031 C1.17505461 32.58922285 1.1864664 36.11871747 1.1953125 39.6484375 C1.20563507 40.75367767 1.21595764 41.85891785 1.22659302 42.99765015 C1.22674408 44.01855743 1.22689514 45.03946472 1.22705078 46.09130859 C1.231492 46.99287689 1.23593323 47.89444519 1.24050903 48.82333374 C1 51 1 51 -1 53 C-8.09049162 55.45440095 -15.56046715 55.94484819 -23 55 C-25.57219094 53.56656544 -26.36930983 52.5087541 -28 50 C-27.28070313 50.47566406 -27.28070313 50.47566406 -26.546875 50.9609375 C-22.83777894 52.47415767 -19.22190798 52.46691411 -15.25 52.625 C-14.45722656 52.66367187 -13.66445312 52.70234375 -12.84765625 52.7421875 C-10.89880584 52.836108 -8.94943549 52.91912822 -7 53 C-7 52.34 -7 51.68 -7 51 C-6.01 51 -5.02 51 -4 51 C-3.67 49.68 -3.34 48.36 -3 47 C-2.34 47 -1.68 47 -1 47 C-0.67 31.49 -0.34 15.98 0 0 Z " fill="#3D8F83" transform="translate(243,335)"/>
<path d="M0 0 C1.32 0 2.64 0 4 0 C4 10.23 4 20.46 4 31 C2.68 31 1.36 31 0 31 C0 20.77 0 10.54 0 0 Z " fill="#04291D" transform="translate(177,346)"/>
<path d="M0 0 C0.66 0 1.32 0 2 0 C4.73029015 5.91302449 4.33005703 11.59519378 4.3125 18 C4.32861328 19.175625 4.34472656 20.35125 4.36132812 21.5625 C4.36197266 22.696875 4.36261719 23.83125 4.36328125 25 C4.36626221 26.03125 4.36924316 27.0625 4.37231445 28.125 C3.93991699 31.46395904 2.99320183 33.30615221 1 36 C-3.74631287 39.16420858 -8.36756877 38.12112755 -14 38 C-14 42.29 -14 46.58 -14 51 C-17.63 51 -21.26 51 -25 51 C-21.71299843 49.35649921 -19.52069985 48.58678331 -16 48 C-16.02320313 47.38511719 -16.04640625 46.77023437 -16.0703125 46.13671875 C-16.09738281 44.92435547 -16.09738281 44.92435547 -16.125 43.6875 C-16.14820313 42.88699219 -16.17140625 42.08648437 -16.1953125 41.26171875 C-16 39 -16 39 -14 36 C-11.94140625 35.55859375 -11.94140625 35.55859375 -9.5625 35.4375 C-6.03736449 35.24585342 -5.0828858 35.0552572 -2 33 C-1.01 33 -0.02 33 1 33 C2.23698865 29.1712256 2.15148174 25.35330124 2.125 21.375 C2.12101196 20.31019409 2.12101196 20.31019409 2.11694336 19.22387695 C2.06024962 9.46734405 2.06024962 9.46734405 0 0 Z " fill="#45AC92" transform="translate(320,337)"/>
<path d="M0 0 C0.33 0 0.66 0 1 0 C1.01458252 1.07894531 1.02916504 2.15789062 1.04418945 3.26953125 C1.10250938 7.30289541 1.17973793 11.33572081 1.26245117 15.36865234 C1.29554293 17.10847172 1.32362307 18.84839439 1.34643555 20.58837891 C1.38027355 23.10103041 1.43260026 25.61274866 1.48828125 28.125 C1.49467117 28.89303955 1.5010611 29.6610791 1.50764465 30.45239258 C1.65270511 35.87664246 2.72629175 40.0518047 5 45 C7.37910445 46.41744662 7.37910445 46.41744662 10.1875 46.5625 C11.15816406 46.67207031 12.12882813 46.78164063 13.12890625 46.89453125 C16.97189018 47.03570209 20.23867586 46.83584981 24 46 C24.33 45.34 24.66 44.68 25 44 C26.485 44.495 26.485 44.495 28 45 C25.00363129 48.28173716 22.8817137 48.93334778 18.3828125 49.2734375 C16.96369563 49.31322582 15.54439578 49.34686783 14.125 49.375 C13.06345703 49.43107422 13.06345703 49.43107422 11.98046875 49.48828125 C7.9763501 49.55538938 6.22628419 49.17946677 3.0546875 46.6640625 C0.4845743 43.3317104 -0.12611387 40.98700768 -0.11352539 36.89575195 C-0.11344986 36.07512772 -0.11337433 35.25450348 -0.11329651 34.40901184 C-0.10813522 33.52767075 -0.10297394 32.64632965 -0.09765625 31.73828125 C-0.0962413 30.83248825 -0.09482635 29.92669525 -0.09336853 28.99345398 C-0.08777001 26.09976909 -0.07521781 23.20616151 -0.0625 20.3125 C-0.05748481 18.35091258 -0.05292193 16.38932394 -0.04882812 14.42773438 C-0.03780107 9.61845979 -0.02053747 4.809243 0 0 Z " fill="#46AB97" transform="translate(164,340)"/>
<path d="M0 0 C3.96 0 7.92 0 12 0 C12 0.33 12 0.66 12 1 C8.37 1 4.74 1 1 1 C1.11882604 6.83508459 1.24310978 12.67001879 1.37231445 18.50488281 C1.41545907 20.48727307 1.45714732 22.46969561 1.49731445 24.45214844 C1.5555164 27.31194765 1.6190634 30.17158742 1.68359375 33.03125 C1.70030624 33.90865845 1.71701874 34.78606689 1.73423767 35.69006348 C1.85699772 40.86179141 2.27154175 45.87746084 3 51 C5.64 51 8.28 51 11 51 C11 45.39 11 39.78 11 34 C11.33 34 11.66 34 12 34 C12 40.27 12 46.54 12 53 C8.04 53 4.08 53 0 53 C0 35.51 0 18.02 0 0 Z " fill="#4CB59A" transform="translate(375,335)"/>
<path d="M0 0 C4.75334079 2.01754703 7.94957476 4.17789442 10 9 C10.66 9 11.32 9 12 9 C12.33 10.65 12.66 12.3 13 14 C11.68 14 10.36 14 9 14 C8.7525 13.2575 8.505 12.515 8.25 11.75 C6.786631 8.53058819 5.9147569 7.04032983 3 5 C-1.70295503 3.83022946 -5.56955883 3.31458027 -10 5.4375 C-10.99 6.2109375 -10.99 6.2109375 -12 7 C-12.66 7 -13.32 7 -14 7 C-14 6.34 -14 5.68 -14 5 C-13.34 5 -12.68 5 -12 5 C-11.87625 4.360625 -11.7525 3.72125 -11.625 3.0625 C-11.41875 2.381875 -11.2125 1.70125 -11 1 C-7.48915948 -0.75542026 -3.83111562 -0.54817235 0 0 Z " fill="#4CCE91" transform="translate(209,99)"/>
<path d="M0 0 C2.83374881 3.20336822 3.5205537 5.78087253 4 10 C4.66 10 5.32 10 6 10 C6 13.3 6 16.6 6 20 C5.34 20 4.68 20 4 20 C3.731875 20.556875 3.46375 21.11375 3.1875 21.6875 C2.795625 22.450625 2.40375 23.21375 2 24 C1.60167969 24.82628906 1.20335937 25.65257812 0.79296875 26.50390625 C-1.47792269 29.66534335 -3.17863379 30.16229124 -6.875 31.25 C-7.90367187 31.56453125 -8.93234375 31.8790625 -9.9921875 32.203125 C-12.65214624 32.90784134 -15.29484547 33.500894 -18 34 C-16.515 33.505 -16.515 33.505 -15 33 C-15 32.01 -15 31.02 -15 30 C-13.02 30 -11.04 30 -9 30 C-9 29.34 -9 28.68 -9 28 C-8.01 28 -7.02 28 -6 28 C-6 27.34 -6 26.68 -6 26 C-4.68 26 -3.36 26 -2 26 C-1.67 24.68 -1.34 23.36 -1 22 C-0.01 22 0.98 22 2 22 C2 21.01 2 20.02 2 19 C2.66 19 3.32 19 4 19 C4.33 17.02 4.66 15.04 5 13 C4.34 13 3.68 13 3 13 C2.49242138 11.58603098 1.99425075 10.16868271 1.5 8.75 C1.2215625 7.96109375 0.943125 7.1721875 0.65625 6.359375 C0 4 0 4 0 0 Z " fill="#42A190" transform="translate(373,214)"/>
<path d="M0 0 C3.96 0 7.92 0 12 0 C12 8.25 12 16.5 12 25 C11.67 25 11.34 25 11 25 C11 17.08 11 9.16 11 1 C7.7 1 4.4 1 1 1 C1.11484575 4.16732497 1.24157782 7.33344695 1.375 10.5 C1.4059375 11.386875 1.436875 12.27375 1.46875 13.1875 C1.71377236 18.74134023 2.4979012 23.64877303 4 29 C4.3564309 30.99601306 4.69922675 32.994845 5 35 C1.125 33.25 1.125 33.25 0 31 C-0.08586809 28.67583704 -0.10711043 26.34916693 -0.09765625 24.0234375 C-0.09553383 22.99556625 -0.09553383 22.99556625 -0.09336853 21.94692993 C-0.08776675 19.75624239 -0.07521406 17.5656567 -0.0625 15.375 C-0.05748522 13.89062648 -0.05292228 12.40625135 -0.04882812 10.921875 C-0.03779677 7.28121685 -0.02053099 3.64061836 0 0 Z " fill="#4FBA95" transform="translate(115,335)"/>
<path d="M0 0 C-23.10854205 11.29956765 -23.10854205 11.29956765 -35 9 C-36.8046875 7.47265625 -36.8046875 7.47265625 -38 6 C-37.38253906 6.02320313 -36.76507813 6.04640625 -36.12890625 6.0703125 C-26.37680768 6.27811978 -18.17164727 3.83212249 -8.91796875 0.90234375 C-2.29280397 -1.14640199 -2.29280397 -1.14640199 0 0 Z " fill="#3D8F92" transform="translate(264,286)"/>
<path d="M0 0 C3.625 -0.1875 3.625 -0.1875 7 0 C7 1.65 7 3.3 7 5 C5.35 5.33 3.7 5.66 2 6 C2 6.66 2 7.32 2 8 C-1.82320557 9.42258812 -4.91281305 10.24042276 -9 10 C-9 8.35 -9 6.7 -9 5 C-7.88625 4.731875 -6.7725 4.46375 -5.625 4.1875 C-1.78159049 3.34190981 -1.78159049 3.34190981 0 0 Z " fill="#3FB18D" transform="translate(263,167)"/>
<path d="M0 0 C4.62 0 9.24 0 14 0 C14 7.92 14 15.84 14 24 C14.66 24 15.32 24 16 24 C16 16.41 16 8.82 16 1 C16.33 1 16.66 1 17 1 C17 8.92 17 16.84 17 25 C15.68 25.33 14.36 25.66 13 26 C12 25 12 25 11.88647461 22.68334961 C11.89171143 21.68311768 11.89694824 20.68288574 11.90234375 19.65234375 C11.90556641 18.57275391 11.90878906 17.49316406 11.91210938 16.38085938 C11.92048828 15.24455078 11.92886719 14.10824219 11.9375 12.9375 C11.94201172 11.79732422 11.94652344 10.65714844 11.95117188 9.48242188 C11.9630024 6.65492582 11.9809385 3.82745655 12 1 C8.04 1 4.08 1 0 1 C0 0.67 0 0.34 0 0 Z " fill="#1A583F" transform="translate(115,334)"/>
<path d="M0 0 C0.609375 1.84765625 0.609375 1.84765625 1 4 C-0.75 6.4375 -0.75 6.4375 -3 9 C-3.6496875 10.175625 -3.6496875 10.175625 -4.3125 11.375 C-6.70973162 15.10402697 -9.8207738 17.93690992 -13 21 C-14.1446875 22.2065625 -14.1446875 22.2065625 -15.3125 23.4375 C-17 25 -17 25 -19 25 C-14.75528927 15.59461464 -6.95093129 7.50018744 0 0 Z " fill="#44B09E" transform="translate(331,224)"/>
<path d="M0 0 C2.43749326 0.96035512 4.85042485 1.93046068 7.2265625 3.03515625 C16.20477142 6.88087115 25.38286085 6.80068105 35 7 C35 7.33 35 7.66 35 8 C29.06 8.495 29.06 8.495 23 9 C24.32 9.66 25.64 10.32 27 11 C17.00354711 11.64493244 7.81639113 8.41904746 0 2 C0 1.34 0 0.68 0 0 Z " fill="#438B88" transform="translate(186,270)"/>
<path d="M0 0 C1.4606285 2.64738916 2 3.89448334 2 7 C1.01 6.67 0.02 6.34 -1 6 C-1.33 5.34 -1.66 4.68 -2 4 C-6.86896303 4.59619955 -11.32790951 5.56976822 -16 7 C-16 7.66 -16 8.32 -16 9 C-22.5 12 -22.5 12 -27 12 C-26 9 -26 9 -23.5625 7.5625 C-19.83374011 5.927079 -16.07210186 4.4192832 -12.26953125 2.96484375 C-4.86381814 -0.18354031 -4.86381814 -0.18354031 0 0 Z " fill="#135D3D" transform="translate(324,143)"/>
<path d="M0 0 C1.98 0 3.96 0 6 0 C4.02 0.99 4.02 0.99 2 2 C1.67 7.94 1.34 13.88 1 20 C-3.29 20 -7.58 20 -12 20 C-12 14.06 -12 8.12 -12 2 C-12.99 1.67 -13.98 1.34 -15 1 C-12.525 1.495 -12.525 1.495 -10 2 C-9.0639658 5.79267192 -9.01723748 8.93674565 -9.4375 12.8125 C-9.53933594 13.78832031 -9.64117187 14.76414062 -9.74609375 15.76953125 C-9.82988281 16.50558594 -9.91367188 17.24164063 -10 18 C-6.7 18 -3.4 18 0 18 C0 12.06 0 6.12 0 0 Z " fill="#479E8E" transform="translate(135,369)"/>
<path d="M0 0 C3.3125 0.625 3.3125 0.625 7 2 C8.89352215 4.96651803 9.89181123 7.67543369 11 11 C11.66 11 12.32 11 13 11 C13 11.66 13 12.32 13 13 C13.99 12.34 14.98 11.68 16 11 C18.96020991 9.70965209 21.84796213 8.70045286 25 8 C25 8.66 25 9.32 25 10 C19.52380952 15 19.52380952 15 17 15 C17 15.66 17 16.32 17 17 C13.21479387 16.45925627 11.40822445 14.92427254 9 12 C9 11.01 9 10.02 9 9 C8.443125 8.79375 7.88625 8.5875 7.3125 8.375 C4.05356595 6.43725543 2.30433531 4.00843777 0 1 C0 0.67 0 0.34 0 0 Z " fill="#45B58C" transform="translate(202,142)"/>
<path d="M0 0 C1.70884005 1.62339805 3.37446717 3.29319053 5 5 C5 5.66 5 6.32 5 7 C5.66 7 6.32 7 7 7 C7 7.99 7 8.98 7 10 C-13.30921053 19.39366585 -13.30921053 19.39366585 -22 20 C-22 19.34 -22 18.68 -22 18 C-21.360625 17.87625 -20.72125 17.7525 -20.0625 17.625 C-19.381875 17.41875 -18.70125 17.2125 -18 17 C-17.67 16.34 -17.34 15.68 -17 15 C-14.12890625 14.1484375 -14.12890625 14.1484375 -10.5625 13.375 C-9.38816406 13.11460937 -8.21382813 12.85421875 -7.00390625 12.5859375 C-4 12 -4 12 -2 12 C-2 11.34 -2 10.68 -2 10 C-0.68 9.67 0.64 9.34 2 9 C1.34 6.03 0.68 3.06 0 0 Z " fill="#3F9787" transform="translate(274,216)"/>
<path d="M0 0 C2.49544367 1.24772183 2.69100352 2.12778931 3.8046875 4.640625 C4.14113281 5.38183594 4.47757812 6.12304688 4.82421875 6.88671875 C5.51764953 8.44629356 6.21037295 10.00618311 6.90234375 11.56640625 C8.8690895 15.89623815 10.96438391 19.30474582 14 23 C15.046875 25.45703125 15.046875 25.45703125 15.75 27.8125 C16.11351562 28.99779297 16.11351562 28.99779297 16.484375 30.20703125 C16.65453125 30.79871094 16.8246875 31.39039063 17 32 C15.68 32 14.36 32 13 32 C12.731875 30.9275 12.46375 29.855 12.1875 28.75 C11.27561147 25.1413134 11.27561147 25.1413134 9.55078125 23.08984375 C7.29373279 20.04822933 6.30961865 16.69362307 5.0625 13.14453125 C4.711875 12.43683594 4.36125 11.72914063 4 11 C3.01 10.67 2.02 10.34 1 10 C0.37542727 6.56484998 0 3.50935186 0 0 Z " fill="#47A990" transform="translate(356,182)"/>
<path d="M0 0 C1.62601393 5.54322931 0.7447746 10.3317049 -1.5625 15.5 C-2.2740625 16.7375 -2.2740625 16.7375 -3 18 C-3.66 18 -4.32 18 -5 18 C-4.938125 18.69480469 -4.87625 19.38960937 -4.8125 20.10546875 C-5.04917189 23.75909102 -6.29752882 26.08489838 -8 29.3125 C-8.8353125 30.91544922 -8.8353125 30.91544922 -9.6875 32.55078125 C-10.3371875 33.76314453 -10.3371875 33.76314453 -11 35 C-11.66 35 -12.32 35 -13 35 C-11.44294559 29.34977983 -9.65277909 24.0279157 -7.18359375 18.71484375 C-4.51381295 12.59108911 -2.30703231 6.26743779 0 0 Z " fill="#41A783" transform="translate(180,138)"/>
<path d="M0 0 C0.66 0.33 1.32 0.66 2 1 C0.99581807 3.64638001 0.35297305 4.79673398 -2.13671875 6.23046875 C-7.12736521 8.1029165 -11.68004042 9.53739482 -17 10 C-17 10.66 -17 11.32 -17 12 C-19.31 12.33 -21.62 12.66 -24 13 C-20.87752563 9.47956322 -17.76847601 7.68843636 -13.5 5.75 C-12.3759375 5.22921875 -11.251875 4.7084375 -10.09375 4.171875 C-7 3 -7 3 -3 3 C-3 2.34 -3 1.68 -3 1 C-2.01 0.67 -1.02 0.34 0 0 Z " fill="#40A38B" transform="translate(198,190)"/>
<path d="M0 0 C0.66 0.66 1.32 1.32 2 2 C0.0424015 2.50286934 -1.91610377 3.0022099 -3.875 3.5 C-4.96554687 3.7784375 -6.05609375 4.056875 -7.1796875 4.34375 C-10 5 -10 5 -12 5 C-12.33 6.98 -12.66 8.96 -13 11 C-13.66 11 -14.32 11 -15 11 C-15 9.02 -15 7.04 -15 5 C-15.99 5.33 -16.98 5.66 -18 6 C-18 5.34 -18 4.68 -18 4 C-12.18370097 -0.13603487 -7.10753578 -1.0136784 0 0 Z " fill="#347267" transform="translate(304,226)"/>
<path d="M0 0 C-0.61875 0.0825 -1.2375 0.165 -1.875 0.25 C-4.67505419 1.23825442 -4.74113932 2.40359985 -6 5 C-8.0625 6.125 -8.0625 6.125 -10 7 C-10.33 7.66 -10.66 8.32 -11 9 C-11.99 9 -12.98 9 -14 9 C-14 8.34 -14 7.68 -14 7 C-19.28 7.66 -24.56 8.32 -30 9 C-25.91822578 6.27881719 -21.80129116 5.81894815 -17.03125 4.87890625 C-13.90407532 3.97218679 -13.12754515 3.28424819 -11 1 C-8.80859375 0.234375 -8.80859375 0.234375 -6.4375 -0.25 C-5.65246094 -0.42015625 -4.86742187 -0.5903125 -4.05859375 -0.765625 C-2 -1 -2 -1 0 0 Z " fill="#378987" transform="translate(254,268)"/>
<path d="M0 0 C11.88 0 23.76 0 36 0 C36 0.33 36 0.66 36 1 C29.51758187 2.93093306 23.61855144 3.30460366 16.875 3.25 C15.43060547 3.26160156 15.43060547 3.26160156 13.95703125 3.2734375 C8.90878319 3.25954961 4.72508752 3.00458258 0 1 C0 0.67 0 0.34 0 0 Z " fill="#0A2D30" transform="translate(196,274)"/>
<path d="M0 0 C0.99 0 1.98 0 3 0 C3.33 1.32 3.66 2.64 4 4 C4.66 4 5.32 4 6 4 C6.33 4.99 6.66 5.98 7 7 C7.66 7.33 8.32 7.66 9 8 C9 9.65 9 11.3 9 13 C9.66 13 10.32 13 11 13 C10.67 14.32 10.34 15.64 10 17 C8.35 16.67 6.7 16.34 5 16 C4.89042969 15.39671875 4.78085937 14.7934375 4.66796875 14.171875 C3.77577738 9.67465023 3.0152704 6.56350139 0 3 C0 2.01 0 1.02 0 0 Z " fill="#42B493" transform="translate(335,169)"/>
<path d="M0 0 C1.32 0 2.64 0 4 0 C4 5.61 4 11.22 4 17 C2.68 17.33 1.36 17.66 0 18 C0 12.06 0 6.12 0 0 Z " fill="#093624" transform="translate(307,346)"/>
<path d="M0 0 C3.63 0 7.26 0 11 0 C10.67 0.99 10.34 1.98 10 3 C10 2.34 10 1.68 10 1 C7.69 1.33 5.38 1.66 3 2 C1.80596133 6.25228586 1.85635791 10.3948894 1.8671875 14.78125 C1.86623077 15.63174927 1.86527405 16.48224854 1.86428833 17.35852051 C1.86360886 19.15389073 1.8654469 20.94926343 1.86962891 22.74462891 C1.87498044 25.48996508 1.86967604 28.23513765 1.86328125 30.98046875 C1.86394207 32.72656286 1.86522332 34.47265687 1.8671875 36.21875 C1.86516327 37.03863403 1.86313904 37.85851807 1.86105347 38.70324707 C1.87584041 42.30408076 2.0271187 45.53531371 3 49 C2.34 49 1.68 49 1 49 C0.04837628 46.14512885 -0.12163139 44.39545683 -0.11352539 41.43676758 C-0.11344986 40.51603958 -0.11337433 39.59531158 -0.11329651 38.64668274 C-0.10813522 37.65597275 -0.10297394 36.66526276 -0.09765625 35.64453125 C-0.0962413 34.62775803 -0.09482635 33.6109848 -0.09336853 32.56340027 C-0.08776707 29.31307036 -0.07521432 26.06280912 -0.0625 22.8125 C-0.05748519 20.61002704 -0.05292225 18.40755299 -0.04882812 16.20507812 C-0.03779716 10.80335893 -0.02053154 5.40169111 0 0 Z " fill="#4CC59D" transform="translate(214,336)"/>
<path d="M0 0 C0.33 0.66 0.66 1.32 1 2 C-0.28965176 3.37562854 -1.62689293 4.70766393 -3 6 C-3.66 6 -4.32 6 -5 6 C-5.144375 6.61875 -5.28875 7.2375 -5.4375 7.875 C-6 10 -6 10 -7 12 C-6.01 12 -5.02 12 -4 12 C-4 12.66 -4 13.32 -4 14 C-6.5 15.625 -6.5 15.625 -9 17 C-8.814375 16.360625 -8.62875 15.72125 -8.4375 15.0625 C-8.293125 14.381875 -8.14875 13.70125 -8 13 C-8.33 12.67 -8.66 12.34 -9 12 C-9.33 12.66 -9.66 13.32 -10 14 C-12.48412207 14.82804069 -14.35220307 15 -17 15 C-13.41157029 11.30504919 -9.66828129 7.95241783 -5.6875 4.6875 C-5.13771484 4.23310547 -4.58792969 3.77871094 -4.02148438 3.31054688 C-2.68287784 2.20474148 -1.34170769 1.10204061 0 0 Z " fill="#46BD88" transform="translate(265,107)"/>
<path d="M0 0 C-4.07518264 1.90360005 -8.03284375 3.73134549 -12.375 4.9375 C-15.65573177 5.8990938 -18.42484405 7.09614498 -21.5 8.5625 C-25.78126737 10.57026676 -29.29559333 11.68637289 -34 12 C-31 10 -31 10 -28 10 C-28 9.01 -28 8.02 -28 7 C-22.05997502 4.71281281 -16.25622688 2.6843704 -10.0078125 1.44140625 C-7.73184577 0.98172634 -7.73184577 0.98172634 -4.5625 -0.1875 C-2 -1 -2 -1 0 0 Z " fill="#307874" transform="translate(322,263)"/>
<path d="M0 0 C0.66 0 1.32 0 2 0 C2.33 10.89 2.66 21.78 3 33 C1 32 1 32 -0.1484375 29.24609375 C-1.61987045 23.61231966 -0.95201329 17.81466371 -0.625 12.0625 C-0.56828125 10.90169922 -0.5115625 9.74089844 -0.453125 8.54492188 C-0.31243361 5.69592114 -0.16110018 2.84790737 0 0 Z " fill="#0F3827" transform="translate(113,335)"/>
<path d="M0 0 C0.33 0 0.66 0 1 0 C1.05058332 7.2265322 1.08568412 14.45301899 1.10986328 21.6796875 C1.11993983 24.13966579 1.13360131 26.59963206 1.15087891 29.05957031 C1.17505461 32.58922285 1.1864664 36.11871747 1.1953125 39.6484375 C1.20563507 40.75367767 1.21595764 41.85891785 1.22659302 42.99765015 C1.22674408 44.01855743 1.22689514 45.03946472 1.22705078 46.09130859 C1.231492 46.99287689 1.23593323 47.89444519 1.24050903 48.82333374 C1 51 1 51 -1 53 C-1.99 52.67 -2.98 52.34 -4 52 C-3.34 51.01 -2.68 50.02 -2 49 C-1.34 49 -0.68 49 0 49 C0 32.83 0 16.66 0 0 Z " fill="#1A5847" transform="translate(243,335)"/>
<path d="M0 0 C-0.92180834 4.0329115 -2.57296387 5.65178872 -5.9375 7.8125 C-10.03155854 10.29954491 -13.30131625 10 -18 10 C-14.9100157 6.23827998 -11.51922783 4.72454154 -7.12109375 2.9296875 C-0.43697479 0 -0.43697479 0 0 0 Z " fill="#45C79E" transform="translate(250,165)"/>
<path d="M0 0 C0.99 0.33 1.98 0.66 3 1 C0.09082887 5.02808311 -2.85166499 7.31578323 -7 10 C-9.38437775 11.943004 -11.69977741 13.95838232 -14 16 C-14 14.35 -14 12.7 -14 11 C-13.34 11 -12.68 11 -12 11 C-11.525625 10.195625 -11.05125 9.39125 -10.5625 8.5625 C-9 6 -9 6 -6 5 C-4.97895449 4.02149805 -3.9793879 3.02019573 -3 2 C-2.01 1.34 -1.02 0.68 0 0 Z " fill="#44B98C" transform="translate(243,133)"/>
<path d="M0 0 C9.14034937 0.47449901 17.99592496 1.2729614 27 3 C27 3.33 27 3.66 27 4 C19.75002578 4.28307925 13.09038772 3.50974035 6 2 C6 3.98 6 5.96 6 8 C1.125 3.375 1.125 3.375 0 0 Z " fill="#093028" transform="translate(273,213)"/>
<path d="M0 0 C1.0625 1.875 1.0625 1.875 2 4 C1.67 4.66 1.34 5.32 1 6 C0.34 6 -0.32 6 -1 6 C-1.33 6.99 -1.66 7.98 -2 9 C-6.455 9.495 -6.455 9.495 -11 10 C-10.34 8.02 -9.68 6.04 -9 4 C-6.36 3.67 -3.72 3.34 -1 3 C-0.67 2.01 -0.34 1.02 0 0 Z " fill="#3EB793" transform="translate(252,173)"/>
<path d="M0 0 C2.0625 0.4375 2.0625 0.4375 4 1 C3.01 1.495 3.01 1.495 2 2 C1.93941406 3.21558594 1.87882813 4.43117188 1.81640625 5.68359375 C1.73201668 7.26824228 1.6473679 8.85287702 1.5625 10.4375 C1.50352539 11.64116211 1.50352539 11.64116211 1.44335938 12.86914062 C1.11328125 18.88671875 1.11328125 18.88671875 0 20 C-2.35313555 20.07271741 -4.70833668 20.08370868 -7.0625 20.0625 C-8.35285156 20.05347656 -9.64320312 20.04445313 -10.97265625 20.03515625 C-11.97167969 20.02355469 -12.97070312 20.01195312 -14 20 C-14 19.67 -14 19.34 -14 19 C-9.71 19 -5.42 19 -1 19 C-1.01160156 17.71222656 -1.02320313 16.42445313 -1.03515625 15.09765625 C-1.0445327 13.41927228 -1.05363305 11.74088674 -1.0625 10.0625 C-1.07087891 9.21236328 -1.07925781 8.36222656 -1.08789062 7.48632812 C-1.09111328 6.67744141 -1.09433594 5.86855469 -1.09765625 5.03515625 C-1.10289307 4.2862915 -1.10812988 3.53742676 -1.11352539 2.76586914 C-1 1 -1 1 0 0 Z " fill="#0D332C" transform="translate(137,370)"/>
<path d="M0 0 C1.32 0.33 2.64 0.66 4 1 C4.33 2.65 4.66 4.3 5 6 C8.41751653 7.13917218 11.03487937 7.11338481 14.63671875 7.09765625 C15.93544922 7.09443359 17.23417969 7.09121094 18.57226562 7.08789062 C19.94401108 7.07953531 21.31575587 7.07107037 22.6875 7.0625 C24.07096195 7.05748335 25.45442563 7.05292073 26.83789062 7.04882812 C30.22530395 7.03702529 33.61263033 7.02056019 37 7 C37 7.33 37 7.66 37 8 C30.58168714 9.19627906 24.32379704 9.22145733 17.8125 9.25 C16.62462891 9.270625 15.43675781 9.29125 14.21289062 9.3125 C12.50842773 9.32023438 12.50842773 9.32023438 10.76953125 9.328125 C9.21649292 9.34214355 9.21649292 9.34214355 7.63208008 9.35644531 C5 9 5 9 3.21362305 7.67871094 C1.49825145 5.30597002 0.80680525 2.79278741 0 0 Z " fill="#469E93" transform="translate(177,242)"/>
<path d="M0 0 C0 0.66 0 1.32 0 2 C-1.98 2 -3.96 2 -6 2 C-6 1.01 -6 0.02 -6 -1 C-6.74765625 -0.84402344 -7.4953125 -0.68804687 -8.265625 -0.52734375 C-9.74289062 -0.23537109 -9.74289062 -0.23537109 -11.25 0.0625 C-12.71179688 0.35833984 -12.71179688 0.35833984 -14.203125 0.66015625 C-16.868119 0.98397535 -18.48871723 0.85503199 -21 0 C-13.1741306 -4.18593015 -7.56178106 -5.40127218 0 0 Z " fill="#3E9A93" transform="translate(308,254)"/>
<path d="M0 0 C3.92577555 1.48908728 4.89141072 3.48230538 7 7 C9.05597145 9.40190928 11.19912653 11.69996448 13.35546875 14.01171875 C15 16 15 16 15 18 C12.50638429 16.79618552 10.31856917 15.54571278 8 14 C8 13.34 8 12.68 8 12 C7.071875 11.566875 7.071875 11.566875 6.125 11.125 C4 10 4 10 2 8 C2.66 8 3.32 8 4 8 C3.67 6.68 3.34 5.36 3 4 C2.34 4 1.68 4 1 4 C0.67 2.68 0.34 1.36 0 0 Z " fill="#49AC7B" transform="translate(296,89)"/>
<path d="M0 0 C7.97943709 -0.22512518 15.24034828 0.12839386 23 2 C24.66548682 2.3391792 26.33188109 2.67401197 28 3 C28 3.66 28 4.32 28 5 C18.62420318 3.88156738 9.29969612 2.65562772 0 1 C0 0.67 0 0.34 0 0 Z " fill="#44A792" transform="translate(288,214)"/>
<path d="M0 0 C0.66 0.33 1.32 0.66 2 1 C0.04271035 7.17299045 -4.15745994 9.43315223 -9.50390625 12.77734375 C-10.73947266 13.38255859 -10.73947266 13.38255859 -12 14 C-12.66 13.67 -13.32 13.34 -14 13 C-13.01 12.67 -12.02 12.34 -11 12 C-10.67 11.01 -10.34 10.02 -10 9 C-8.22265625 7.24609375 -8.22265625 7.24609375 -6.0625 5.4375 C-3.96656037 3.66869432 -1.94005112 1.94005112 0 0 Z " fill="#0A2E1F" transform="translate(238,140)"/>
<path d="M0 0 C0 0.99 0 1.98 0 3 C-1.93370231 4.00732399 -3.87210306 5.00563288 -5.8125 6 C-7.43091797 6.8353125 -7.43091797 6.8353125 -9.08203125 7.6875 C-12 9 -12 9 -15 9 C-15 8.01 -15 7.02 -15 6 C-13.06629769 4.99267601 -11.12789694 3.99436712 -9.1875 3 C-8.10855469 2.443125 -7.02960938 1.88625 -5.91796875 1.3125 C-3 0 -3 0 0 0 Z " fill="#106043" transform="translate(291,157)"/>
<path d="M0 0 C-1.72850345 0.79311367 -3.45783354 1.5844259 -5.1875 2.375 C-6.63189453 3.03628906 -6.63189453 3.03628906 -8.10546875 3.7109375 C-9.06066406 4.13632812 -10.01585937 4.56171875 -11 5 C-11.86238281 5.38414062 -12.72476563 5.76828125 -13.61328125 6.1640625 C-16 7 -16 7 -20 7 C-19.67 6.01 -19.34 5.02 -19 4 C-16.19921875 2.8671875 -16.19921875 2.8671875 -12.6875 1.875 C-11.53636719 1.54242188 -10.38523438 1.20984375 -9.19921875 0.8671875 C-7.61560547 0.43792969 -7.61560547 0.43792969 -6 0 C-5.24332031 -0.22429687 -4.48664063 -0.44859375 -3.70703125 -0.6796875 C-2 -1 -2 -1 0 0 Z " fill="#38868A" transform="translate(264,286)"/>
<path d="M0 0 C0.70125 0.70125 1.4025 1.4025 2.125 2.125 C2.57875 2.57617188 3.0325 3.02734375 3.5 3.4921875 C4.53124713 4.52880571 5.55156022 5.57638043 6.5625 6.6328125 C9.81037174 10.01645334 9.81037174 10.01645334 14 12 C14.37125 11.071875 14.37125 11.071875 14.75 10.125 C16.20628639 7.64931313 17.37812506 7.04874998 20 6 C18.56738438 8.58795079 17.08988644 10.8944785 15 13 C11.375 13.75 11.375 13.75 8 13 C6.1875 10.5625 6.1875 10.5625 5 8 C4.34 7.67 3.68 7.34 3 7 C3 6.34 3 5.68 3 5 C2.01 4.67 1.02 4.34 0 4 C0 2.68 0 1.36 0 0 Z " fill="#389E73" transform="translate(228,117)"/>
<path d="M0 0 C-2.9801241 1.9867494 -5.42296075 2.90852573 -8.8125 4 C-9.82957031 4.33 -10.84664063 4.66 -11.89453125 5 C-13.43173828 5.495 -13.43173828 5.495 -15 6 C-17.0006912 6.66458947 -19.00089827 7.33064456 -21 8 C-15.42794828 1.34948665 -8.51005438 -0.54319496 0 0 Z " fill="#45AB9E" transform="translate(355,248)"/>
<path d="M0 0 C2 2 2 2 2.4375 4.3125 C1.80267527 8.21213766 0.06623101 9.61515366 -3 12 C-5.8125 12.3125 -5.8125 12.3125 -8 12 C-7.0409375 11.5978125 -7.0409375 11.5978125 -6.0625 11.1875 C-3.66868314 10.11332248 -3.66868314 10.11332248 -3 7 C-2.01 7 -1.02 7 0 7 C-0.33 5.35 -0.66 3.7 -1 2 C-4.3 1.67 -7.6 1.34 -11 1 C-11 0.67 -11 0.34 -11 0 C-7.00904159 -0.83531688 -3.93289983 -1.20171939 0 0 Z " fill="#409B8C" transform="translate(309,229)"/>
<path d="M0 0 C3.24271506 0.5590888 4.93057424 1.4132178 7 4 C7 4.66 7 5.32 7 6 C7.66 6 8.32 6 9 6 C9.33 7.65 9.66 9.3 10 11 C8.68 11 7.36 11 6 11 C5.62875 9.88625 5.62875 9.88625 5.25 8.75 C3.90634806 5.79396573 2.31013315 4.23312872 0 2 C0 1.34 0 0.68 0 0 Z " fill="#42B07F" transform="translate(212,102)"/>
<path d="M0 0 C-0.33 1.65 -0.66 3.3 -1 5 C-0.01 5.66 0.98 6.32 2 7 C-0.31 8.98 -2.62 10.96 -5 13 C-5.33 11.68 -5.66 10.36 -6 9 C-5.01 9.33 -4.02 9.66 -3 10 C-4.3089572 6.87802522 -4.3089572 6.87802522 -7 5 C-2.25 0 -2.25 0 0 0 Z " fill="#46CB8B" transform="translate(287,88)"/>
<path d="M0 0 C0.33 0 0.66 0 1 0 C1 5.28 1 10.56 1 16 C-2.3 16 -5.6 16 -9 16 C-9 15.01 -9 14.02 -9 13 C-6.08517222 12.19032562 -4.53886783 11.78154007 -1.6875 12.9375 C-1.130625 13.288125 -0.57375 13.63875 0 14 C-0.185625 12.989375 -0.37125 11.97875 -0.5625 10.9375 C-0.99768247 7.02085773 -0.70853021 3.85755337 0 0 Z " fill="#42BEA9" transform="translate(134,371)"/>
<path d="M0 0 C0.33 1.98 0.66 3.96 1 6 C0.01 6 -0.98 6 -2 6 C-2 6.99 -2 7.98 -2 9 C-3.65 8.67 -5.3 8.34 -7 8 C-3.8 0 -3.8 0 0 0 Z " fill="#46D892" transform="translate(292,85)"/>
<path d="M0 0 C0 0.99 0 1.98 0 3 C-1 4 -2 5 -3 6 C-4.19027984 8.59915538 -4.19027984 8.59915538 -5 11 C-5.66 11 -6.32 11 -7 11 C-7.0825 11.5775 -7.165 12.155 -7.25 12.75 C-8.21797787 15.6539336 -9.68694284 17.03740604 -12 19 C-12.66 19 -13.32 19 -14 19 C-12.33560611 15.26635965 -10.01873867 12.19231874 -7.5625 8.9375 C-6.78003906 7.89464844 -5.99757813 6.85179687 -5.19140625 5.77734375 C-3.54050529 3.68502542 -1.9451921 1.80759009 0 0 Z " fill="#37857B" transform="translate(326,230)"/>
<path d="M0 0 C-1.14453125 1.953125 -1.14453125 1.953125 -3 4 C-5.69921875 4.609375 -5.69921875 4.609375 -8.6875 4.75 C-9.68136719 4.80671875 -10.67523438 4.8634375 -11.69921875 4.921875 C-12.83810547 4.96054688 -12.83810547 4.96054688 -14 5 C-12.68 4.34 -11.36 3.68 -10 3 C-10 2.34 -10 1.68 -10 1 C-3.71428571 -1.42857143 -3.71428571 -1.42857143 0 0 Z " fill="#3C9D80" transform="translate(232,176)"/>
<path d="M0 0 C-3.0009592 2.46305142 -5.86188511 3.91069397 -9.5 5.25 C-10.90765625 5.78367187 -10.90765625 5.78367187 -12.34375 6.328125 C-15.07674477 7.01941191 -16.39280344 6.95925156 -19 6 C-17.88625 5.54625 -16.7725 5.0925 -15.625 4.625 C-12.03800992 3.27534014 -12.03800992 3.27534014 -10 1 C-6.62286946 0.08726202 -3.48722633 -0.09963504 0 0 Z " fill="#45A9A1" transform="translate(326,259)"/>
<path d="M0 0 C0 0.66 0 1.32 0 2 C-1.60032137 2.84069415 -3.20541171 3.67231505 -4.8125 4.5 C-6.15248047 5.19609375 -6.15248047 5.19609375 -7.51953125 5.90625 C-10 7 -10 7 -13 7 C-12 4 -12 4 -10.29296875 2.83203125 C-9.25076172 2.32736328 -9.25076172 2.32736328 -8.1875 1.8125 C-7.50042969 1.46832031 -6.81335938 1.12414062 -6.10546875 0.76953125 C-4 0 -4 0 0 0 Z " fill="#0F5C43" transform="translate(268,169)"/>
<path d="M0 0 C0.66 0 1.32 0 2 0 C0.42503263 7.30212142 -2.23328215 14.07264539 -5 21 C-5.33 21 -5.66 21 -6 21 C-5.50471859 15.35379191 -4.40666753 11.19840186 -2 6 C-1.31163487 4.00736409 -0.63718601 2.00958663 0 0 Z " fill="#44A381" transform="translate(190,148)"/>
<path d="M0 0 C0 0.66 0 1.32 0 2 C-0.66 2 -1.32 2 -2 2 C-2.433125 3.7015625 -2.433125 3.7015625 -2.875 5.4375 C-3.24625 6.613125 -3.6175 7.78875 -4 9 C-4.99 9.495 -4.99 9.495 -6 10 C-6.99 9.67 -7.98 9.34 -9 9 C-8.09729807 5.30712847 -7.59508949 3.44631711 -4.5 1.125 C-2 0 -2 0 0 0 Z " fill="#42CF93" transform="translate(267,110)"/>
<path d="M0 0 C1.14726562 0.00515625 2.29453125 0.0103125 3.4765625 0.015625 C5.18972656 0.00789063 5.18972656 0.00789063 6.9375 0 C9.92163133 0.25051967 11.59096928 0.70732576 14.1015625 2.265625 C14.1015625 2.925625 14.1015625 3.585625 14.1015625 4.265625 C13.4621875 3.935625 12.8228125 3.605625 12.1640625 3.265625 C7.77473273 1.83237446 2.35258479 1.14011386 -1.8984375 3.265625 C-2.2284375 4.255625 -2.5584375 5.245625 -2.8984375 6.265625 C-3.5584375 6.265625 -4.2184375 6.265625 -4.8984375 6.265625 C-5.2284375 6.925625 -5.5584375 7.585625 -5.8984375 8.265625 C-5.8984375 7.275625 -5.8984375 6.285625 -5.8984375 5.265625 C-5.2384375 5.265625 -4.5784375 5.265625 -3.8984375 5.265625 C-4.2284375 4.275625 -4.5584375 3.285625 -4.8984375 2.265625 C-2.8984375 0.265625 -2.8984375 0.265625 0 0 Z " fill="#052712" transform="translate(199.8984375,97.734375)"/>
<path d="M0 0 C0 0.66 0 1.32 0 2 C0.66 2.33 1.32 2.66 2 3 C-0.76783074 3.99641907 -2.34156091 3.94844364 -5.3125 3.5 C-9.14801584 2.97993006 -12.21173509 3.30419624 -16 4 C-15.67 3.34 -15.34 2.68 -15 2 C-12.890625 1.3671875 -12.890625 1.3671875 -10.25 0.875 C-8.95835937 0.62363281 -8.95835937 0.62363281 -7.640625 0.3671875 C-5.05466179 0.0076009 -2.60686191 -0.06564041 0 0 Z " fill="#40B1AF" transform="translate(240,275)"/>
<path d="M0 0 C0.33 0 0.66 0 1 0 C1.7941888 6.0358349 -0.70318085 11.0687015 -4 16 C-4.99 16.33 -5.98 16.66 -7 17 C-5.53012914 10.85326729 -2.94033413 5.57765673 0 0 Z " fill="#40A57D" transform="translate(188,120)"/>
<path d="M0 0 C3.77076889 -0.05799124 7.54142334 -0.09359306 11.3125 -0.125 C12.38435547 -0.14175781 13.45621094 -0.15851563 14.56054688 -0.17578125 C15.58857422 -0.18222656 16.61660156 -0.18867188 17.67578125 -0.1953125 C18.62364502 -0.20578613 19.57150879 -0.21625977 20.5480957 -0.22705078 C23 0 23 0 26 2 C26 2.66 26 3.32 26 4 C22.125 3.125 22.125 3.125 21 2 C19.43827255 1.91314397 17.87270656 1.89297781 16.30859375 1.90234375 C15.36435547 1.90556641 14.42011719 1.90878906 13.44726562 1.91210938 C12.45404297 1.92048828 11.46082031 1.92886719 10.4375 1.9375 C9.44041016 1.94201172 8.44332031 1.94652344 7.41601562 1.95117188 C4.94395151 1.96299993 2.47200482 1.97948151 0 2 C0 1.34 0 0.68 0 0 Z " fill="#4DD39A" transform="translate(295,336)"/>
<path d="M0 0 C0 0.66 0 1.32 0 2 C0.99 2.33 1.98 2.66 3 3 C-2.98685848 4.26361972 -8.91766294 5.32418477 -15 6 C-12.61874536 3.61874536 -10.66142433 2.99813759 -7.5 1.875 C-6.5203125 1.52179688 -5.540625 1.16859375 -4.53125 0.8046875 C-2 0 -2 0 0 0 Z " fill="#3B938B" transform="translate(280,257)"/>
<path d="M0 0 C0.66 0.33 1.32 0.66 2 1 C0.625 2.5 0.625 2.5 -1 4 C-1.66 4 -2.32 4 -3 4 C-3.66 5.32 -4.32 6.64 -5 8 C-7.97 7.505 -7.97 7.505 -11 7 C-11 6.34 -11 5.68 -11 5 C-9.93458984 4.58427734 -9.93458984 4.58427734 -8.84765625 4.16015625 C-7.46900391 3.61681641 -7.46900391 3.61681641 -6.0625 3.0625 C-5.14597656 2.70285156 -4.22945313 2.34320313 -3.28515625 1.97265625 C-1.07581467 1.2003782 -1.07581467 1.2003782 0 0 Z " fill="#41AB85" transform="translate(281,149)"/>
<path d="M0 0 C0.99 0 1.98 0 3 0 C3.33 0.99 3.66 1.98 4 3 C4.66 3.33 5.32 3.66 6 4 C5.67 5.32 5.34 6.64 5 8 C3.35 7.67 1.7 7.34 0 7 C0 4.69 0 2.38 0 0 Z " fill="#3FAB8E" transform="translate(340,178)"/>
<path d="M0 0 C1.125 1.6875 1.125 1.6875 2 4 C1.125 6.75 1.125 6.75 0 9 C-0.66 9 -1.32 9 -2 9 C-2 12.96 -2 16.92 -2 21 C-2.33 21 -2.66 21 -3 21 C-3.0816082 18.62429457 -3.14077222 16.25144159 -3.1875 13.875 C-3.22520508 12.87726563 -3.22520508 12.87726563 -3.26367188 11.859375 C-3.33320714 7.13097708 -2.40278375 4.04878521 0 0 Z " fill="#449F8B" transform="translate(158,196)"/>
<path d="M0 0 C3.63 0 7.26 0 11 0 C11 0.66 11 1.32 11 2 C12.98 2 14.96 2 17 2 C17 2.33 17 2.66 17 3 C11.39 3 5.78 3 0 3 C0 2.01 0 1.02 0 0 Z " fill="#399884" transform="translate(271,211)"/>
<path d="M0 0 C0 0.66 0 1.32 0 2 C0.66 2.33 1.32 2.66 2 3 C-4.5 6 -4.5 6 -9 6 C-8 3 -8 3 -5.0625 1.3125 C-2 0 -2 0 0 0 Z " fill="#176848" transform="translate(306,149)"/>
<path d="M0 0 C-1 2 -1 2 -3.21484375 2.8515625 C-4.11332031 3.10679687 -5.01179688 3.36203125 -5.9375 3.625 C-6.83339844 3.88539063 -7.72929687 4.14578125 -8.65234375 4.4140625 C-11 5 -11 5 -13 5 C-13 4.34 -13 3.68 -13 3 C-12.360625 2.87625 -11.72125 2.7525 -11.0625 2.625 C-10.0415625 2.315625 -10.0415625 2.315625 -9 2 C-8.67 1.34 -8.34 0.68 -8 0 C-4.71585695 -0.95067299 -3.30306592 -1.10102197 0 0 Z " fill="#43A293" transform="translate(265,231)"/>
<path d="M0 0 C0.99 0.33 1.98 0.66 3 1 C2.34 3.97 1.68 6.94 1 10 C-2.8 6.2 -2.8 6.2 -3 3 C-1.5625 1.25 -1.5625 1.25 0 0 Z " fill="#3BD1A3" transform="translate(345,170)"/>
<path d="M0 0 C0 0.66 0 1.32 0 2 C-0.61875 2.0825 -1.2375 2.165 -1.875 2.25 C-4.18437567 2.81258459 -4.18437567 2.81258459 -5.25 5.0625 C-5.4975 5.701875 -5.745 6.34125 -6 7 C-8.64 7 -11.28 7 -14 7 C-10.33997803 3.94998169 -4.92148529 0 0 0 Z " fill="#41B48E" transform="translate(290,160)"/>
<path d="M0 0 C1.32 0 2.64 0 4 0 C3.67 0.66 3.34 1.32 3 2 C2.34 1.67 1.68 1.34 1 1 C1.061875 2.03125 1.12375 3.0625 1.1875 4.125 C0.98864405 8.23468973 0.05532197 10.48882496 -2 14 C-2.66 14 -3.32 14 -4 14 C-3.52188823 12.22888156 -3.0424722 10.45811517 -2.5625 8.6875 C-2.29566406 7.70136719 -2.02882812 6.71523437 -1.75390625 5.69921875 C-1.21920575 3.78482474 -0.62855462 1.88566385 0 0 Z " fill="#114830" transform="translate(195,138)"/>
<path d="M0 0 C1.32 0 2.64 0 4 0 C4 0.66 4 1.32 4 2 C2.02 2.33 0.04 2.66 -2 3 C-2.33 3.99 -2.66 4.98 -3 6 C-4.65 6.33 -6.3 6.66 -8 7 C-6.125 3.125 -6.125 3.125 -5 2 C-3.33382885 1.95936168 -1.66611905 1.957279 0 2 C0 1.34 0 0.68 0 0 Z " fill="#409C9B" transform="translate(290,271)"/>
<path d="M0 0 C0.33 0.66 0.66 1.32 1 2 C3.64 1.67 6.28 1.34 9 1 C6.27698513 3.72301487 3.40091772 5.17807979 0 7 C-0.66 7 -1.32 7 -2 7 C-1.125 1.125 -1.125 1.125 0 0 Z " fill="#02241B" transform="translate(174,196)"/>
<path d="M0 0 C-0.33 1.32 -0.66 2.64 -1 4 C-2.051875 4.103125 -3.10375 4.20625 -4.1875 4.3125 C-7.90212333 4.98235011 -9.867691 6.03112006 -13 8 C-13.66 7.67 -14.32 7.34 -15 7 C-13.5839401 6.20724852 -12.16712447 5.41584688 -10.75 4.625 C-9.56664062 3.96371094 -9.56664062 3.96371094 -8.359375 3.2890625 C-2.33939394 0 -2.33939394 0 0 0 Z " fill="#3C967D" transform="translate(218,181)"/>
<path d="M0 0 C2.3125 2.5 2.3125 2.5 4 5 C2.68 5 1.36 5 0 5 C0 4.34 0 3.68 0 3 C-3.3 3 -6.6 3 -10 3 C-6.34432963 0.56288642 -4.41507765 -0.63072538 0 0 Z " fill="#41A981" transform="translate(322,146)"/>
<path d="M0 0 C2.97 0 5.94 0 9 0 C9 0.33 9 0.66 9 1 C7.02 1.33 5.04 1.66 3 2 C2.34 5.63 1.68 9.26 1 13 C0.67 13 0.34 13 0 13 C0 8.71 0 4.42 0 0 Z " fill="#052621" transform="translate(307,376)"/>
<path d="M0 0 C0.66 0.33 1.32 0.66 2 1 C2 2.32 2 3.64 2 5 C1.01 5.495 1.01 5.495 0 6 C0 6.99 0 7.98 0 9 C-0.66 9 -1.32 9 -2 9 C-2.33 8.34 -2.66 7.68 -3 7 C-3.99 6.34 -4.98 5.68 -6 5 C-5.01 4.67 -4.02 4.34 -3 4 C-2.67 3.01 -2.34 2.02 -2 1 C-1.34 0.67 -0.68 0.34 0 0 Z " fill="#4AD895" transform="translate(282,93)"/>
<path d="M0 0 C1.32 0.33 2.64 0.66 4 1 C4 1.66 4 2.32 4 3 C5.32 3.33 6.64 3.66 8 4 C8 4.99 8 5.98 8 7 C9.32 7.33 10.64 7.66 12 8 C10.375 8.8125 10.375 8.8125 8 9 C4.31633819 6.42143673 1.59720719 4.3124594 0 0 Z " fill="#3E9392" transform="translate(216,283)"/>
<path d="M0 0 C-3.06117568 2.62386487 -3.73173127 3 -8 3 C-8 3.66 -8 4.32 -8 5 C-10.31 5.66 -12.62 6.32 -15 7 C-14.5 5.1875 -14.5 5.1875 -13 3 C-8.85374088 0.77313274 -4.73081322 -0.44351374 0 0 Z " fill="#3E9593" transform="translate(280,278)"/>
<path d="M0 0 C0 0.66 0 1.32 0 2 C-1.89453221 2.64964023 -3.79068649 3.29455115 -5.6875 3.9375 C-6.74324219 4.29714844 -7.79898437 4.65679687 -8.88671875 5.02734375 C-11.59050583 5.87206518 -14.21386842 6.50893785 -17 7 C-16.01 6.67 -15.02 6.34 -14 6 C-14 5.01 -14 4.02 -14 3 C-13.30132812 2.86722656 -12.60265625 2.73445312 -11.8828125 2.59765625 C-10.51769531 2.33275391 -10.51769531 2.33275391 -9.125 2.0625 C-7.76761719 1.80146484 -7.76761719 1.80146484 -6.3828125 1.53515625 C-4.0328149 1.0073699 -2.39804152 0 0 0 Z " fill="#296961" transform="translate(372,241)"/>
<path d="M0 0 C2.475 0.495 2.475 0.495 5 1 C5 1.66 5 2.32 5 3 C6.32 2.67 7.64 2.34 9 2 C8.67 3.98 8.34 5.96 8 8 C6.85073734 7.04578192 5.70569459 6.08647955 4.5625 5.125 C3.92441406 4.59132812 3.28632813 4.05765625 2.62890625 3.5078125 C1 2 1 2 0 0 Z " fill="#42A594" transform="translate(167,232)"/>
<path d="M0 0 C-2.5654594 2.5654594 -4.47686668 2.54046087 -8 3 C-8.33 4.98 -8.66 6.96 -9 9 C-9.66 9 -10.32 9 -11 9 C-11.3125 6.75 -11.3125 6.75 -11 4 C-7.52419392 0.21750515 -5.05426729 -0.4701644 0 0 Z " fill="#106456" transform="translate(300,228)"/>
<path d="M0 0 C-0.5 1.8125 -0.5 1.8125 -2 4 C-5.31738334 5.81213892 -8.46663529 7.28916393 -12.2578125 6.57421875 C-12.83273438 6.38472656 -13.40765625 6.19523438 -14 6 C-13.38511719 5.73445312 -12.77023438 5.46890625 -12.13671875 5.1953125 C-11.32847656 4.84210938 -10.52023438 4.48890625 -9.6875 4.125 C-8.88699219 3.77695313 -8.08648437 3.42890625 -7.26171875 3.0703125 C-0.77372263 0 -0.77372263 0 0 0 Z " fill="#3A9879" transform="translate(250,165)"/>
<path d="M0 0 C0.66 0 1.32 0 2 0 C3.2890625 1.64453125 3.2890625 1.64453125 4.625 3.8125 C5.07101562 4.52019531 5.51703125 5.22789062 5.9765625 5.95703125 C7 8 7 8 7 11 C6.01 11 5.02 11 4 11 C3.32880451 9.5437455 2.66318193 8.08492133 2 6.625 C1.62875 5.81289062 1.2575 5.00078125 0.875 4.1640625 C0 2 0 2 0 0 Z " fill="#0A5438" transform="translate(327,154)"/>
<path d="M0 0 C0 3.99711412 -1.32141544 5.1042329 -4 8 C-6.625 9.875 -6.625 9.875 -9 11 C-9.66 10.67 -10.32 10.34 -11 10 C-5.555 5.05 -5.555 5.05 0 0 Z " fill="#0E3D25" transform="translate(265,116)"/>
<path d="M0 0 C0 4.09494154 -1.69697409 5.50742326 -4.33203125 8.48046875 C-6.448839 10.40889548 -8.15301606 10.91626518 -11 11 C-10.34 10.01 -9.68 9.02 -9 8 C-8.34 8 -7.68 8 -7 8 C-7 7.34 -7 6.68 -7 6 C-5.46875 4.4921875 -5.46875 4.4921875 -3.5 2.875 C-2.8503125 2.33617188 -2.200625 1.79734375 -1.53125 1.2421875 C-0.77328125 0.62730469 -0.77328125 0.62730469 0 0 Z " fill="#0E3E23" transform="translate(287,96)"/>
<path d="M0 0 C-0.33 1.32 -0.66 2.64 -1 4 C-1.99 4 -2.98 4 -4 4 C-4.33 5.32 -4.66 6.64 -5 8 C-6.65 8.33 -8.3 8.66 -10 9 C-10 7 -10 7 -8.3203125 5.2734375 C-7.59585937 4.64695312 -6.87140625 4.02046875 -6.125 3.375 C-5.04605469 2.42753906 -5.04605469 2.42753906 -3.9453125 1.4609375 C-2 0 -2 0 0 0 Z " fill="#3A976A" transform="translate(280,94)"/>
<path d="M0 0 C5 2 5 2 10 4 C10 4.99 10 5.98 10 7 C6.12697862 5.85569823 2.99736561 4.76679902 0 2 C0 1.34 0 0.68 0 0 Z " fill="#375B57" transform="translate(186,270)"/>
<path d="M0 0 C-4.96993194 2.43425238 -8.34605369 3.34615998 -14 3 C-13.34 2.67 -12.68 2.34 -12 2 C-12 1.34 -12 0.68 -12 0 C-10.37585622 -0.19477739 -8.75063577 -0.38059458 -7.125 -0.5625 C-6.22007812 -0.66691406 -5.31515625 -0.77132812 -4.3828125 -0.87890625 C-2 -1 -2 -1 0 0 Z " fill="#40968B" transform="translate(229,246)"/>
<path d="M0 0 C0.66 0.33 1.32 0.66 2 1 C-0.58403608 3.53835868 -1.76068358 3.99485632 -5.453125 4.07421875 C-6.70609375 3.94660156 -7.9590625 3.81898438 -9.25 3.6875 C-11.14492187 3.50767578 -11.14492187 3.50767578 -13.078125 3.32421875 C-14.04234375 3.21722656 -15.0065625 3.11023438 -16 3 C-16 2.67 -16 2.34 -16 2 C-14.64455078 1.90912109 -14.64455078 1.90912109 -13.26171875 1.81640625 C-11.49248047 1.69072266 -11.49248047 1.69072266 -9.6875 1.5625 C-7.92986328 1.44068359 -7.92986328 1.44068359 -6.13671875 1.31640625 C-2.97409042 1.1132629 -2.97409042 1.1132629 0 0 Z " fill="#1F524D" transform="translate(189,387)"/>
<path d="M0 0 C2.97 0 5.94 0 9 0 C6 2 6 2 2.9375 3.5 C-0.03112476 4.82567342 -0.03112476 4.82567342 -2 7 C-1.125 2.25 -1.125 2.25 0 0 Z " fill="#48B6A6" transform="translate(294,230)"/>
<path d="M0 0 C0.33 0 0.66 0 1 0 C1 2.31 1 4.62 1 7 C0.01 7.33 -0.98 7.66 -2 8 C-2.33 9.98 -2.66 11.96 -3 14 C-3.66 13.67 -4.32 13.34 -5 13 C-4.34 10.69 -3.68 8.38 -3 6 C-2.34 6 -1.68 6 -1 6 C-0.67 4.02 -0.34 2.04 0 0 Z " fill="#48B887" transform="translate(194,106)"/>
<path d="M0 0 C0.99 0 1.98 0 3 0 C1.60344703 3.49873271 0.28739516 4.70891831 -3.125 6.25 C-4.21167969 6.75273437 -4.21167969 6.75273437 -5.3203125 7.265625 C-6.15175781 7.62914062 -6.15175781 7.62914062 -7 8 C-7.33 7.34 -7.66 6.68 -8 6 C-7.01 6 -6.02 6 -5 6 C-5 5.34 -5 4.68 -5 4 C-3.68 4 -2.36 4 -1 4 C-0.67 2.68 -0.34 1.36 0 0 Z " fill="#48A99B" transform="translate(372,236)"/>
<path d="M0 0 C2.31 1.65 4.62 3.3 7 5 C4 7 4 7 1.8125 6.625 C1.214375 6.41875 0.61625 6.2125 0 6 C0 4 0 2 0 0 Z " fill="#15433C" transform="translate(286,236)"/>
<path d="M0 0 C2.97 0 5.94 0 9 0 C8 4 8 4 5 6 C5 4.68 5 3.36 5 2 C3.35 1.67 1.7 1.34 0 1 C0 0.67 0 0.34 0 0 Z " fill="#07342C" transform="translate(323,221)"/>
<path d="M0 0 C0.33 0 0.66 0 1 0 C1.63934602 5.11476819 -0.59466453 8.67254378 -3 13 C-3.66 13 -4.32 13 -5 13 C-4.54803755 11.39402675 -4.08817673 9.79027492 -3.625 8.1875 C-3.36976563 7.29417969 -3.11453125 6.40085938 -2.8515625 5.48046875 C-2 3 -2 3 0 0 Z " fill="#399376" transform="translate(172,160)"/>
<path d="M0 0 C3.375 0.25 3.375 0.25 7 1 C8.4375 3.0625 8.4375 3.0625 9 5 C8.01 6.485 8.01 6.485 7 8 C7 6.35 7 4.7 7 3 C4.69 2.67 2.38 2.34 0 2 C0 1.34 0 0.68 0 0 Z " fill="#48BD8D" transform="translate(184,335)"/>
<path d="M0 0 C-10.68484999 5.59682618 -10.68484999 5.59682618 -16 4 C-3.60854893 -1.80427447 -3.60854893 -1.80427447 0 0 Z " fill="#0F3B35" transform="translate(261,235)"/>
<path d="M0 0 C-0.3810518 2.76262553 -0.83597132 3.84143894 -2.875 5.8125 C-3.57625 6.204375 -4.2775 6.59625 -5 7 C-5.99 6.67 -6.98 6.34 -8 6 C-7.0479279 4.99403703 -6.08812654 3.99538437 -5.125 3 C-4.59132812 2.443125 -4.05765625 1.88625 -3.5078125 1.3125 C-2 0 -2 0 0 0 Z " fill="#0B3221" transform="translate(251,130)"/>
<path d="M0 0 C2 1 2 1 2.8515625 3.06640625 C3.10679687 3.89011719 3.36203125 4.71382812 3.625 5.5625 C3.88539063 6.38878906 4.14578125 7.21507812 4.4140625 8.06640625 C4.60742188 8.70449219 4.80078125 9.34257812 5 10 C3.68 10 2.36 10 1 10 C0.67 6.7 0.34 3.4 0 0 Z " fill="#3B947F" transform="translate(368,204)"/>
<path d="M0 0 C0.33 0 0.66 0 1 0 C1.42160623 4.63766855 0.12710211 7.9033589 -2 12 C-2.99 12.33 -3.98 12.66 -5 13 C-4.731875 12.34 -4.46375 11.68 -4.1875 11 C-2.74294953 7.35060933 -1.37128822 3.67754567 0 0 Z " fill="#08281C" transform="translate(190,154)"/>
<path d="M0 0 C0.66 0 1.32 0 2 0 C1.59316505 2.35964273 1.10185661 3.85934088 -0.3125 5.8125 C-2 7 -2 7 -4.1875 6.6875 C-4.785625 6.460625 -5.38375 6.23375 -6 6 C-5.195625 5.38125 -4.39125 4.7625 -3.5625 4.125 C-0.96125481 2.25835959 -0.96125481 2.25835959 0 0 Z " fill="#0D3820" transform="translate(272,109)"/>
<path d="M0 0 C0.99 0.33 1.98 0.66 3 1 C3 1.66 3 2.32 3 3 C3.66 3 4.32 3 5 3 C5.33 4.32 5.66 5.64 6 7 C3.13275314 6.42655063 2.1385485 6.1385485 0 4 C0 2.68 0 1.36 0 0 Z " fill="#4BD898" transform="translate(294,90)"/>
<path d="M0 0 C0.33 0 0.66 0 1 0 C1.22179212 3.25295114 1.28601103 5.42797793 -0.1875 8.375 C-2 10 -2 10 -4.6875 10.25 C-5.450625 10.1675 -6.21375 10.085 -7 10 C-6.34 9.34 -5.68 8.68 -5 8 C-4.01 8 -3.02 8 -2 8 C-1.855625 7.236875 -1.71125 6.47375 -1.5625 5.6875 C-1 3 -1 3 0 0 Z " fill="#4DBC9E" transform="translate(143,359)"/>
<path d="M0 0 C1.65 0 3.3 0 5 0 C3 3 3 3 0.6171875 3.73046875 C-0.28773438 3.88128906 -1.19265625 4.03210938 -2.125 4.1875 C-3.49011719 4.42533203 -3.49011719 4.42533203 -4.8828125 4.66796875 C-5.58148438 4.77753906 -6.28015625 4.88710938 -7 5 C-4.64046906 2.64046906 -3.22104383 2.50858587 0 2 C0 1.34 0 0.68 0 0 Z " fill="#46ABAB" transform="translate(262,282)"/>
<path d="M0 0 C-2.3129482 2.3129482 -3.47904875 2.49580975 -6.625 3.125 C-7.44226563 3.29257813 -8.25953125 3.46015625 -9.1015625 3.6328125 C-10.04128906 3.81457031 -10.04128906 3.81457031 -11 4 C-7.65667474 -0.27945633 -5.29105716 -0.4070044 0 0 Z " fill="#44A396" transform="translate(245,239)"/>
<path d="M0 0 C0.66 0.33 1.32 0.66 2 1 C1.67 1.99 1.34 2.98 1 4 C-2.4342662 4.85856655 -4.61682513 4.97591583 -8 4 C-6.71349294 3.30289269 -5.42059335 2.61757124 -4.125 1.9375 C-3.40570313 1.55464844 -2.68640625 1.17179688 -1.9453125 0.77734375 C-1.30335938 0.52082031 -0.66140625 0.26429688 0 0 Z " fill="#328C6D" transform="translate(258,160)"/>
<path d="M0 0 C-6.75 4 -6.75 4 -9 4 C-8.67 2.68 -8.34 1.36 -8 0 C-4.71303767 -0.79953138 -3.28976808 -1.09658936 0 0 Z " fill="#3DAC80" transform="translate(315,145)"/>
<path d="M0 0 C3.26008643 3.16952847 6.22237877 6.39937989 9 10 C7 9 5 8 3 7 C3 6.34 3 5.68 3 5 C2.01 4.67 1.02 4.34 0 4 C0 2.68 0 1.36 0 0 Z " fill="#43B485" transform="translate(228,117)"/>
<path d="M0 0 C0.99 1.32 1.98 2.64 3 4 C2.34 4 1.68 4 1 4 C1 4.99 1 5.98 1 7 C-1.97 6.505 -1.97 6.505 -5 6 C-4.01 5.01 -3.02 4.02 -2 3 C-1.34 3.33 -0.68 3.66 0 4 C0 2.68 0 1.36 0 0 Z " fill="#49D89C" transform="translate(255,117)"/>
<path d="M0 0 C0.66 0.33 1.32 0.66 2 1 C1.25 3.4375 1.25 3.4375 0 6 C-2.49476051 7.04618989 -4.26856911 7 -7 7 C-4.66666667 4.66666667 -2.33333333 2.33333333 0 0 Z " fill="#399C72" transform="translate(255,115)"/>
<path d="M0 0 C0.99 0.33 1.98 0.66 3 1 C2.34 2.98 1.68 4.96 1 7 C0.01 7 -0.98 7 -2 7 C-2 5.02 -2 3.04 -2 1 C-1.34 0.67 -0.68 0.34 0 0 Z " fill="#46DB9A" transform="translate(197,105)"/>
<path d="M0 0 C-0.33 0.99 -0.66 1.98 -1 3 C-3.06640625 3.94921875 -3.06640625 3.94921875 -5.5625 4.6875 C-6.38878906 4.93886719 -7.21507812 5.19023437 -8.06640625 5.44921875 C-8.70449219 5.63097656 -9.34257812 5.81273437 -10 6 C-10 5.34 -10 4.68 -10 4 C-8.71086513 3.32845067 -7.41859796 2.66291141 -6.125 2 C-5.40570313 1.62875 -4.68640625 1.2575 -3.9453125 0.875 C-2 0 -2 0 0 0 Z " fill="#044126" transform="translate(316,145)"/>
<path d="M0 0 C0.99 0.33 1.98 0.66 3 1 C1.515 6.445 1.515 6.445 0 12 C-0.33 12 -0.66 12 -1 12 C-1.08159574 7.83861737 -0.98248524 4.0527516 0 0 Z " fill="#47CD99" transform="translate(181,137)"/>
<path d="M0 0 C0.66 0.33 1.32 0.66 2 1 C0.68 3.31 -0.64 5.62 -2 8 C-2.66 8 -3.32 8 -4 8 C-3.42415568 5.61435923 -2.77772405 3.33317216 -2 1 C-1.34 0.67 -0.68 0.34 0 0 Z " fill="#43D89E" transform="translate(188,128)"/>
<path d="M0 0 C-1.625 2.0625 -1.625 2.0625 -4 4 C-7.25 3.75 -7.25 3.75 -10 3 C-9 1 -9 1 -5.5625 -0.1875 C-2 -1 -2 -1 0 0 Z " fill="#041417" transform="translate(297,274)"/>
<path d="M0 0 C0 0.99 0 1.98 0 3 C-2.31 3.33 -4.62 3.66 -7 4 C-6.67 3.01 -6.34 2.02 -6 1 C-4 0 -4 0 0 0 Z " fill="#10614A" transform="translate(249,178)"/>
<path d="M0 0 C1 2 1 2 0.0625 5.125 C-0.288125 6.07375 -0.63875 7.0225 -1 8 C-1.66 8 -2.32 8 -3 8 C-3.33 9.32 -3.66 10.64 -4 12 C-4 9.69 -4 7.38 -4 5 C-3.34 4.67 -2.68 4.34 -2 4 C-0.86649466 1.98330173 -0.86649466 1.98330173 0 0 Z " fill="#33886D" transform="translate(182,173)"/>
<path d="M0 0 C2 1 2 1 3.125 4.0625 C3.41375 5.031875 3.7025 6.00125 4 7 C3.01 7.99 2.02 8.98 1 10 C0.37542727 6.56484998 0 3.50935186 0 0 Z " fill="#389E80" transform="translate(356,182)"/>
<path d="M0 0 C0.99 0 1.98 0 3 0 C3.66 1.98 4.32 3.96 5 6 C4.01 6 3.02 6 2 6 C0 3 0 3 0 0 Z " fill="#11634B" transform="translate(335,169)"/>
<path d="M0 0 C0.33 0.66 0.66 1.32 1 2 C3.31 1.34 5.62 0.68 8 0 C7.25 1.9375 7.25 1.9375 6 4 C4 4.875 4 4.875 2 5 C1.34 4.34 0.68 3.68 0 3 C0 2.01 0 1.02 0 0 Z " fill="#41BC8F" transform="translate(296,153)"/>
<path d="M0 0 C2.04119788 1.61594832 4.04072937 3.2856382 6 5 C6 5.66 6 6.32 6 7 C3.50638429 5.79618552 1.31856917 4.54571278 -1 3 C-0.67 2.01 -0.34 1.02 0 0 Z " fill="#43785F" transform="translate(305,100)"/>
<path d="M0 0 C0.66 0 1.32 0 2 0 C1.875 1.875 1.875 1.875 1 4 C-2.0625 5.25 -2.0625 5.25 -5 6 C-3.38405168 3.95880212 -1.7143618 1.95927063 0 0 Z " fill="#3CA370" transform="translate(285,88)"/>
<path d="M0 0 C0.66 1.32 1.32 2.64 2 4 C0.35 5.32 -1.3 6.64 -3 8 C-3.66 7.67 -4.32 7.34 -5 7 C-5 6.34 -5 5.68 -5 5 C-3.35 4.67 -1.7 4.34 0 4 C0 2.68 0 1.36 0 0 Z " fill="#45C49E" transform="translate(133,355)"/>
<path d="M0 0 C-3.68734758 2.45823172 -6.69699971 3.01242616 -11 4 C-7.65667474 -0.27945633 -5.29105716 -0.4070044 0 0 Z " fill="#40988F" transform="translate(355,248)"/>
<path d="M0 0 C-0.33 0.99 -0.66 1.98 -1 3 C-1.99 2.67 -2.98 2.34 -4 2 C-4 2.66 -4 3.32 -4 4 C-5.65 4 -7.3 4 -9 4 C-6.31059578 0.90718514 -4.07621501 0 0 0 Z " fill="#072821" transform="translate(281,226)"/>
<path d="M0 0 C0.66 0.33 1.32 0.66 2 1 C1.01 2.485 1.01 2.485 0 4 C-3.625 4.6875 -3.625 4.6875 -7 5 C-4.63707344 2.47411298 -3.33537489 1.11179163 0 0 Z " fill="#358370" transform="translate(181,198)"/>
<path d="M0 0 C-0.99 0.33 -1.98 0.66 -3 1 C-3 1.66 -3 2.32 -3 3 C-5.31 3.66 -7.62 4.32 -10 5 C-9 2 -9 2 -7.25 0.8125 C-4.70039426 -0.10819096 -2.69076919 -0.14948718 0 0 Z " fill="#04271E" transform="translate(198,190)"/>
<path d="M0 0 C0.99 0 1.98 0 3 0 C2.01 2.97 1.02 5.94 0 9 C-0.33 9 -0.66 9 -1 9 C-0.67 6.03 -0.34 3.06 0 0 Z " fill="#0B3429" transform="translate(162,179)"/>
<path d="M0 0 C0.66 0.99 1.32 1.98 2 3 C0.69593116 5.01920337 -0.63823419 7.01924973 -2 9 C-2.33 9 -2.66 9 -3 9 C-3 7.35 -3 5.7 -3 4 C-2.34 4 -1.68 4 -1 4 C-0.67 2.68 -0.34 1.36 0 0 Z " fill="#49C6A0" transform="translate(170,169)"/>
<path d="M0 0 C0.556875 0.226875 1.11375 0.45375 1.6875 0.6875 C-0.6225 2.0075 -2.9325 3.3275 -5.3125 4.6875 C-5.9725 4.0275 -6.6325 3.3675 -7.3125 2.6875 C-2.88173077 -0.38942308 -2.88173077 -0.38942308 0 0 Z " fill="#4ACA9E" transform="translate(310.3125,151.3125)"/>
<path d="M0 0 C0 0.66 0 1.32 0 2 C-0.66 2 -1.32 2 -2 2 C-2.33 3.65 -2.66 5.3 -3 7 C-4.32 6.34 -5.64 5.68 -7 5 C-7 4.34 -7 3.68 -7 3 C-2.61538462 0 -2.61538462 0 0 0 Z " fill="#45DC9B" transform="translate(267,110)"/>
<path d="M0 0 C8.57142857 -0.28571429 8.57142857 -0.28571429 12 2 C12 2.66 12 3.32 12 4 C11.319375 3.690625 10.63875 3.38125 9.9375 3.0625 C6.63034088 1.86629351 3.48454122 1.40994603 0 1 C0 0.67 0 0.34 0 0 Z " fill="#0C3F25" transform="translate(202,98)"/>
<path d="M0 0 C-0.33 0.99 -0.66 1.98 -1 3 C-5.455 3.495 -5.455 3.495 -10 4 C-9.67 3.34 -9.34 2.68 -9 2 C-2.88888889 0 -2.88888889 0 0 0 Z " fill="#0B2D31" transform="translate(286,277)"/>
<path d="M0 0 C0.66 0 1.32 0 2 0 C1.49396008 2.16874252 1.00016187 3.99967627 0 6 C-1.65 6 -3.3 6 -5 6 C-3.625 4.5 -3.625 4.5 -2 3 C-1.34 3 -0.68 3 0 3 C0 2.01 0 1.02 0 0 Z " fill="#40AFAE" transform="translate(282,272)"/>
<path d="M0 0 C0.99 0 1.98 0 3 0 C2.67 1.32 2.34 2.64 2 4 C-0.31 4.33 -2.62 4.66 -5 5 C-4.360625 4.731875 -3.72125 4.46375 -3.0625 4.1875 C-0.66868314 3.11332248 -0.66868314 3.11332248 0 0 Z " fill="#47A194" transform="translate(306,236)"/>
<path d="M0 0 C0.66 0.99 1.32 1.98 2 3 C1.125 5.6875 1.125 5.6875 0 8 C-0.66 8 -1.32 8 -2 8 C-1.125 2.25 -1.125 2.25 0 0 Z " fill="#42A087" transform="translate(161,188)"/>
<path d="M0 0 C0.99 0 1.98 0 3 0 C3.33 2.31 3.66 4.62 4 7 C2 5.1875 2 5.1875 0 3 C0 2.01 0 1.02 0 0 Z " fill="#0B5842" transform="translate(340,178)"/>
<path d="M0 0 C0.66 0 1.32 0 2 0 C2 1.65 2 3.3 2 5 C2.66 5 3.32 5 4 5 C3.67 5.99 3.34 6.98 3 8 C1.5 6.8125 1.5 6.8125 0 5 C-0.1875 2.3125 -0.1875 2.3125 0 0 Z " fill="#47BF95" transform="translate(331,154)"/>
<path d="M0 0 C0.66 0.33 1.32 0.66 2 1 C2 1.99 2 2.98 2 4 C0.35 4 -1.3 4 -3 4 C-3 3.01 -3 2.02 -3 1 C-2.01 0.67 -1.02 0.34 0 0 Z " fill="#40D69E" transform="translate(227,144)"/>
<path d="M0 0 C0.33 1.32 0.66 2.64 1 4 C1.99 4 2.98 4 4 4 C4 4.66 4 5.32 4 6 C1.11424181 5.60196439 0.17810487 5.20990931 -1.75 2.9375 C-2.1625 2.298125 -2.575 1.65875 -3 1 C-2.01 0.67 -1.02 0.34 0 0 Z " fill="#093620" transform="translate(238,123)"/>
<path d="M0 0 C0.99 0.33 1.98 0.66 3 1 C0.03 3.475 0.03 3.475 -3 6 C-3.33 5.01 -3.66 4.02 -4 3 C-3.34 3 -2.68 3 -2 3 C-2 2.34 -2 1.68 -2 1 C-1.34 0.67 -0.68 0.34 0 0 Z " fill="#062B16" transform="translate(264,105)"/>
<path d="M0 0 C1.21236328 0.04060547 1.21236328 0.04060547 2.44921875 0.08203125 C3.06410156 0.11683594 3.67898437 0.15164062 4.3125 0.1875 C4.3125 0.5175 4.3125 0.8475 4.3125 1.1875 C2.7346875 1.4040625 2.7346875 1.4040625 1.125 1.625 C-1.84210549 2.06276966 -4.75544366 2.56554866 -7.6875 3.1875 C-5.26849268 0.20484049 -3.789448 -0.16475861 0 0 Z " fill="#3A9065" transform="translate(204.6875,98.8125)"/>
<path d="M0 0 C6.625 0.75 6.625 0.75 10 3 C8.68 3.33 7.36 3.66 6 4 C6 3.34 6 2.68 6 2 C4.68 2.33 3.36 2.66 2 3 C1.34 2.01 0.68 1.02 0 0 Z " fill="#515050" transform="translate(428,50)"/>
</svg>
