<?xml version="1.0" standalone="no"?>
<!DOCTYPE svg PUBLIC "-//W3C//DTD SVG 20010904//EN"
 "http://www.w3.org/TR/2001/REC-SVG-20010904/DTD/svg10.dtd">
<svg version="1.0" xmlns="http://www.w3.org/2000/svg"
 width="1080.000000pt" height="1024.000000pt" viewBox="0 0 1080.000000 1024.000000"
 preserveAspectRatio="xMidYMid meet">

<g transform="translate(0.000000,1024.000000) scale(0.100000,-0.100000)"
fill="#000000" stroke="none">
<path d="M150 5585 l0 -4205 5265 0 5265 0 0 103 c0 117 0 7295 0 7905 l0 402
-5265 0 -5265 0 0 -4205z m5622 2406 c2 -4 24 -32 49 -62 119 -139 160 -191
156 -195 -3 -3 -52 29 -109 70 -58 42 -111 76 -119 76 -8 0 -32 -17 -54 -38
-22 -20 -65 -59 -95 -86 -30 -27 -80 -72 -110 -100 -30 -28 -93 -85 -140 -126
-47 -41 -87 -77 -90 -80 -6 -6 -193 -175 -255 -231 -22 -20 -89 -80 -149 -135
l-108 -98 -36 39 c-137 153 -236 255 -245 252 -5 -1 -34 -66 -64 -142 -93
-242 -164 -425 -224 -580 -55 -141 -66 -175 -54 -175 6 0 369 178 1010 495
736 364 943 462 986 470 45 8 111 -9 143 -38 24 -21 86 -123 163 -267 19 -36
46 -85 59 -110 14 -25 47 -85 73 -135 27 -49 91 -170 144 -267 172 -316 229
-436 229 -483 0 -96 -60 -149 -262 -233 -135 -56 -293 -121 -765 -312 -194
-79 -433 -177 -630 -257 -180 -74 -207 -82 -271 -83 -95 0 -142 21 -226 104
-71 70 -75 73 -133 79 -68 7 -158 37 -228 74 -53 29 -57 43 -5 20 154 -70 400
-71 610 -3 40 13 147 53 238 89 91 36 255 99 365 141 110 42 212 82 227 87 24
10 30 7 58 -25 18 -20 37 -36 44 -36 7 0 45 42 86 93 41 50 118 147 173 215
98 122 111 152 67 152 -12 0 -186 27 -388 60 -202 33 -376 61 -386 63 -26 3
-30 -15 -9 -39 10 -10 40 -45 66 -77 48 -56 48 -57 25 -66 -13 -6 -54 -23 -93
-39 -251 -105 -625 -246 -706 -266 -183 -47 -416 -57 -519 -23 -29 10 -35 17
-36 40 -1 21 -19 47 -66 95 -202 209 -240 256 -258 321 -22 79 -13 117 78 356
345 902 457 1166 507 1199 37 25 83 30 135 16 48 -13 51 -15 297 -273 67 -70
125 -127 130 -127 4 0 24 15 44 33 19 17 76 68 125 112 81 72 201 182 214 195
3 3 25 23 50 44 68 59 222 199 234 213 13 14 43 17 48 4z m33 -1932 c-41 -10
-81 -40 -90 -69 -7 -23 13 -76 25 -64 4 5 10 22 12 38 4 41 43 66 112 73 55 6
63 15 21 27 -11 3 -3 4 18 1 107 -11 144 -115 58 -163 -84 -47 -190 -37 -248
24 -34 37 -47 32 -37 -13 l6 -28 -17 23 c-9 13 -14 30 -10 42 18 56 107 121
165 119 18 -1 13 -4 -15 -10z m-1440 -1468 c57 -33 60 -49 60 -352 l0 -276
-27 -35 c-37 -49 -80 -61 -193 -56 -103 4 -133 17 -162 71 -16 28 -18 63 -18
302 0 246 2 273 19 301 10 17 28 37 40 44 49 31 228 31 281 1z m-837 -154 c2
-138 5 -169 17 -174 37 -14 44 13 47 181 l3 161 80 0 80 0 3 -190 c3 -215 -5
-246 -67 -277 -19 -9 -38 -23 -42 -30 -5 -7 -9 -61 -9 -120 l0 -108 -79 0
c-63 0 -80 3 -85 16 -3 9 -6 62 -6 118 l0 102 -35 17 c-68 32 -75 57 -75 274
0 144 3 193 13 197 6 2 44 4 82 3 l70 -2 3 -168z m1328 161 c3 -4 5 -127 4
-272 0 -144 2 -270 6 -280 5 -13 48 -23 56 -13 1 1 5 130 8 287 l5 285 40 3
c22 2 60 1 84 -3 l44 -7 -7 -316 c-6 -274 -10 -321 -25 -347 -26 -45 -64 -59
-171 -63 -111 -3 -152 12 -185 68 -19 33 -20 55 -23 344 -3 251 -1 310 10 317
16 11 147 8 154 -3z m1262 -12 c59 -30 67 -61 67 -251 0 -121 -4 -179 -14
-202 -18 -44 -80 -73 -153 -73 -66 0 -68 -2 -68 -106 l0 -74 -80 0 -80 0 0
359 c0 278 3 361 13 365 6 3 73 4 148 2 100 -3 145 -8 167 -20z m930 -343 l2
-363 -85 0 -85 0 0 359 c0 410 -11 370 100 368 l65 -2 3 -362z"/>
<path d="M6070 7186 c-114 -48 -240 -116 -240 -131 0 -24 20 -18 163 50 75 36
141 65 147 65 6 0 20 -16 31 -35 12 -19 25 -35 30 -35 32 0 7 79 -30 100 -27
14 -38 12 -101 -14z"/>
<path d="M6220 7058 c0 -15 68 -135 81 -144 6 -3 15 -2 20 3 14 14 -62 153
-83 153 -10 0 -18 -5 -18 -12z"/>
<path d="M5623 6970 c-51 -24 -83 -45 -83 -55 0 -8 6 -15 14 -15 29 0 186 81
186 95 0 23 -29 17 -117 -25z"/>
<path d="M5328 6824 c-86 -43 -100 -56 -77 -70 17 -10 190 77 187 95 -5 25
-20 21 -110 -25z"/>
<path d="M6344 6846 c-8 -20 23 -76 41 -76 19 0 19 23 0 60 -17 32 -32 38 -41
16z"/>
<path d="M5110 6718 c-42 -29 -49 -48 -18 -48 30 0 91 37 85 53 -7 21 -32 19
-67 -5z"/>
<path d="M6414 6726 c-13 -34 42 -106 60 -78 6 10 -19 60 -39 81 -12 13 -15
12 -21 -3z"/>
<path d="M4213 4453 c-10 -3 -13 -56 -13 -214 l0 -210 28 3 27 3 3 199 c3 216
-2 237 -45 219z"/>
<path d="M5967 4453 c-4 -3 -7 -60 -7 -125 0 -97 3 -120 15 -124 8 -4 22 -1
30 6 19 16 22 219 3 238 -13 13 -31 16 -41 5z"/>
</g>
</svg>
